<svg width="55" height="55" viewBox="0 0 55 55" fill="none" xmlns="http://www.w3.org/2000/svg">
<path d="M0 0H45C50.5228 0 55 4.47715 55 10V45C55 50.5228 50.5228 55 45 55H0V0Z" fill="#BBD084"/>
<path d="M14.33 44.12C13.83 44.12 13.3767 44.0233 12.97 43.83C12.57 43.63 12.25 43.3267 12.01 42.92C11.7767 42.5133 11.66 41.9967 11.66 41.37V37H12.72V41.38C12.72 41.9933 12.8667 42.4433 13.16 42.73C13.4533 43.0167 13.85 43.16 14.35 43.16C14.8433 43.16 15.2367 43.0167 15.53 42.73C15.8233 42.4433 15.97 41.9933 15.97 41.38V37H17.03V41.37C17.03 41.9967 16.9067 42.5133 16.66 42.92C16.42 43.3267 16.0933 43.63 15.68 43.83C15.2733 44.0233 14.8233 44.12 14.33 44.12ZM18.3497 46.2V39.04H19.2997L19.4097 39.81C19.5697 39.5767 19.7897 39.37 20.0697 39.19C20.3497 39.01 20.7097 38.92 21.1497 38.92C21.6297 38.92 22.053 39.0333 22.4197 39.26C22.7864 39.4867 23.073 39.7967 23.2797 40.19C23.493 40.5833 23.5997 41.03 23.5997 41.53C23.5997 42.03 23.493 42.4767 23.2797 42.87C23.073 43.2567 22.7864 43.5633 22.4197 43.79C22.053 44.01 21.6264 44.12 21.1397 44.12C20.753 44.12 20.4097 44.0433 20.1097 43.89C19.8164 43.7367 19.583 43.52 19.4097 43.24V46.2H18.3497ZM20.9597 43.2C21.413 43.2 21.7864 43.0467 22.0797 42.74C22.373 42.4267 22.5197 42.02 22.5197 41.52C22.5197 41.1933 22.453 40.9033 22.3197 40.65C22.1864 40.3967 22.003 40.2 21.7697 40.06C21.5364 39.9133 21.2664 39.84 20.9597 39.84C20.5064 39.84 20.133 39.9967 19.8397 40.31C19.553 40.6233 19.4097 41.0267 19.4097 41.52C19.4097 42.02 19.553 42.4267 19.8397 42.74C20.133 43.0467 20.5064 43.2 20.9597 43.2ZM24.7462 44V36.8H25.8062V44H24.7462ZM29.4685 44.12C28.9952 44.12 28.5685 44.0133 28.1885 43.8C27.8152 43.58 27.5185 43.2767 27.2985 42.89C27.0785 42.4967 26.9685 42.04 26.9685 41.52C26.9685 41 27.0785 40.5467 27.2985 40.16C27.5252 39.7667 27.8285 39.4633 28.2085 39.25C28.5885 39.03 29.0118 38.92 29.4785 38.92C29.9518 38.92 30.3752 39.03 30.7485 39.25C31.1285 39.4633 31.4285 39.7667 31.6485 40.16C31.8752 40.5467 31.9885 41 31.9885 41.52C31.9885 42.04 31.8752 42.4967 31.6485 42.89C31.4285 43.2767 31.1285 43.58 30.7485 43.8C30.3685 44.0133 29.9418 44.12 29.4685 44.12ZM29.4685 43.21C29.7218 43.21 29.9552 43.1467 30.1685 43.02C30.3885 42.8933 30.5652 42.7067 30.6985 42.46C30.8318 42.2067 30.8985 41.8933 30.8985 41.52C30.8985 41.1467 30.8318 40.8367 30.6985 40.59C30.5718 40.3367 30.3985 40.1467 30.1785 40.02C29.9652 39.8933 29.7318 39.83 29.4785 39.83C29.2252 39.83 28.9885 39.8933 28.7685 40.02C28.5552 40.1467 28.3818 40.3367 28.2485 40.59C28.1152 40.8367 28.0485 41.1467 28.0485 41.52C28.0485 41.8933 28.1152 42.2067 28.2485 42.46C28.3818 42.7067 28.5552 42.8933 28.7685 43.02C28.9818 43.1467 29.2152 43.21 29.4685 43.21ZM34.8148 44.12C34.3948 44.12 34.0482 44.05 33.7748 43.91C33.5015 43.77 33.2982 43.5867 33.1648 43.36C33.0315 43.1267 32.9648 42.8733 32.9648 42.6C32.9648 42.12 33.1515 41.74 33.5248 41.46C33.8982 41.18 34.4315 41.04 35.1248 41.04H36.4248V40.95C36.4248 40.5633 36.3182 40.2733 36.1048 40.08C35.8982 39.8867 35.6282 39.79 35.2948 39.79C35.0015 39.79 34.7448 39.8633 34.5248 40.01C34.3115 40.15 34.1815 40.36 34.1348 40.64H33.0748C33.1082 40.28 33.2282 39.9733 33.4348 39.72C33.6482 39.46 33.9148 39.2633 34.2348 39.13C34.5615 38.99 34.9182 38.92 35.3048 38.92C35.9982 38.92 36.5348 39.1033 36.9148 39.47C37.2948 39.83 37.4848 40.3233 37.4848 40.95V44H36.5648L36.4748 43.15C36.3348 43.4233 36.1315 43.6533 35.8648 43.84C35.5982 44.0267 35.2482 44.12 34.8148 44.12ZM35.0248 43.26C35.3115 43.26 35.5515 43.1933 35.7448 43.06C35.9448 42.92 36.0982 42.7367 36.2048 42.51C36.3182 42.2833 36.3882 42.0333 36.4148 41.76H35.2348C34.8148 41.76 34.5148 41.8333 34.3348 41.98C34.1615 42.1267 34.0748 42.31 34.0748 42.53C34.0748 42.7567 34.1582 42.9367 34.3248 43.07C34.4982 43.1967 34.7315 43.26 35.0248 43.26ZM40.9808 44.12C40.5008 44.12 40.0774 44.0067 39.7108 43.78C39.3441 43.5533 39.0574 43.2433 38.8508 42.85C38.6441 42.4567 38.5408 42.01 38.5408 41.51C38.5408 41.01 38.6441 40.5667 38.8508 40.18C39.0574 39.7867 39.3441 39.48 39.7108 39.26C40.0841 39.0333 40.5108 38.92 40.9908 38.92C41.3841 38.92 41.7274 38.9967 42.0208 39.15C42.3208 39.3033 42.5541 39.52 42.7208 39.8V36.8H43.7808V44H42.8308L42.7208 43.23C42.5608 43.4633 42.3408 43.67 42.0608 43.85C41.7808 44.03 41.4208 44.12 40.9808 44.12ZM41.1708 43.2C41.6241 43.2 41.9941 43.0433 42.2808 42.73C42.5741 42.4167 42.7208 42.0133 42.7208 41.52C42.7208 41.02 42.5741 40.6167 42.2808 40.31C41.9941 39.9967 41.6241 39.84 41.1708 39.84C40.7174 39.84 40.3441 39.9967 40.0508 40.31C39.7574 40.6167 39.6108 41.02 39.6108 41.52C39.6108 41.8467 39.6774 42.1367 39.8108 42.39C39.9441 42.6433 40.1274 42.8433 40.3608 42.99C40.6008 43.13 40.8708 43.2 41.1708 43.2Z" fill="#282623"/>
<path d="M27 16.125C27.2155 16.125 27.4222 16.2106 27.5745 16.363C27.7269 16.5153 27.8125 16.722 27.8125 16.9375V20.1875H31.0625C31.278 20.1875 31.4847 20.2731 31.637 20.4255C31.7894 20.5778 31.875 20.7845 31.875 21C31.875 21.2155 31.7894 21.4222 31.637 21.5745C31.4847 21.7269 31.278 21.8125 31.0625 21.8125H27.8125V25.0625C27.8125 25.278 27.7269 25.4847 27.5745 25.637C27.4222 25.7894 27.2155 25.875 27 25.875C26.7845 25.875 26.5778 25.7894 26.4255 25.637C26.2731 25.4847 26.1875 25.278 26.1875 25.0625V21.8125H22.9375C22.722 21.8125 22.5153 21.7269 22.363 21.5745C22.2106 21.4222 22.125 21.2155 22.125 21C22.125 20.7845 22.2106 20.5778 22.363 20.4255C22.5153 20.2731 22.722 20.1875 22.9375 20.1875H26.1875V16.9375C26.1875 16.722 26.2731 16.5153 26.4255 16.363C26.5778 16.2106 26.7845 16.125 27 16.125ZM17.25 21C17.25 19.7196 17.5022 18.4518 17.9922 17.2688C18.4822 16.0859 19.2003 15.0111 20.1057 14.1057C21.0111 13.2003 22.0859 12.4822 23.2688 11.9922C24.4518 11.5022 25.7196 11.25 27 11.25C28.2804 11.25 29.5482 11.5022 30.7312 11.9922C31.9141 12.4822 32.9889 13.2003 33.8943 14.1057C34.7997 15.0111 35.5178 16.0859 36.0078 17.2688C36.4978 18.4518 36.75 19.7196 36.75 21C36.75 23.5859 35.7228 26.0658 33.8943 27.8943C32.0658 29.7228 29.5859 30.75 27 30.75C24.4141 30.75 21.9342 29.7228 20.1057 27.8943C18.2772 26.0658 17.25 23.5859 17.25 21ZM27 12.875C24.8451 12.875 22.7785 13.731 21.2548 15.2548C19.731 16.7785 18.875 18.8451 18.875 21C18.875 23.1549 19.731 25.2215 21.2548 26.7452C22.7785 28.269 24.8451 29.125 27 29.125C29.1549 29.125 31.2215 28.269 32.7452 26.7452C34.269 25.2215 35.125 23.1549 35.125 21C35.125 18.8451 34.269 16.7785 32.7452 15.2548C31.2215 13.731 29.1549 12.875 27 12.875Z" fill="#282623"/>
</svg>
