<svg width="267" height="135" viewBox="0 0 267 135" fill="none" xmlns="http://www.w3.org/2000/svg">
<path d="M0.994 128V118.2H4.172C5.32 118.2 6.26267 118.401 7 118.802C7.74667 119.203 8.29733 119.773 8.652 120.51C9.016 121.238 9.198 122.106 9.198 123.114C9.198 124.113 9.016 124.981 8.652 125.718C8.29733 126.446 7.74667 127.011 7 127.412C6.26267 127.804 5.32 128 4.172 128H0.994ZM2.478 126.74H4.116C5.00267 126.74 5.70267 126.595 6.216 126.306C6.73867 126.017 7.112 125.601 7.336 125.06C7.56933 124.519 7.686 123.87 7.686 123.114C7.686 122.358 7.56933 121.705 7.336 121.154C7.112 120.603 6.73867 120.183 6.216 119.894C5.70267 119.595 5.00267 119.446 4.116 119.446H2.478V126.74ZM14.0298 128.168C13.3671 128.168 12.7698 128.019 12.2378 127.72C11.7151 127.412 11.2998 126.987 10.9918 126.446C10.6838 125.895 10.5298 125.256 10.5298 124.528C10.5298 123.8 10.6838 123.165 10.9918 122.624C11.3091 122.073 11.7338 121.649 12.2658 121.35C12.7978 121.042 13.3904 120.888 14.0438 120.888C14.7064 120.888 15.2991 121.042 15.8218 121.35C16.3538 121.649 16.7738 122.073 17.0818 122.624C17.3991 123.165 17.5577 123.8 17.5577 124.528C17.5577 125.256 17.3991 125.895 17.0818 126.446C16.7738 126.987 16.3538 127.412 15.8218 127.72C15.2898 128.019 14.6924 128.168 14.0298 128.168ZM14.0298 126.894C14.3844 126.894 14.7111 126.805 15.0098 126.628C15.3178 126.451 15.5651 126.189 15.7518 125.844C15.9384 125.489 16.0318 125.051 16.0318 124.528C16.0318 124.005 15.9384 123.571 15.7518 123.226C15.5744 122.871 15.3318 122.605 15.0238 122.428C14.7251 122.251 14.3984 122.162 14.0438 122.162C13.6891 122.162 13.3578 122.251 13.0498 122.428C12.7511 122.605 12.5084 122.871 12.3218 123.226C12.1351 123.571 12.0418 124.005 12.0418 124.528C12.0418 125.051 12.1351 125.489 12.3218 125.844C12.5084 126.189 12.7511 126.451 13.0498 126.628C13.3484 126.805 13.6751 126.894 14.0298 126.894ZM19.1626 128V121.056H20.4786L20.5906 122.274C20.8053 121.845 21.1179 121.509 21.5286 121.266C21.9486 121.014 22.4293 120.888 22.9706 120.888C23.8106 120.888 24.4686 121.149 24.9446 121.672C25.4299 122.195 25.6726 122.974 25.6726 124.01V128H24.2026V124.164C24.2026 122.82 23.6519 122.148 22.5506 122.148C21.9999 122.148 21.5426 122.344 21.1786 122.736C20.8239 123.128 20.6466 123.688 20.6466 124.416V128H19.1626ZM29.7724 128.168C29.1844 128.168 28.6991 128.07 28.3164 127.874C27.9338 127.678 27.6491 127.421 27.4624 127.104C27.2758 126.777 27.1824 126.423 27.1824 126.04C27.1824 125.368 27.4438 124.836 27.9664 124.444C28.4891 124.052 29.2358 123.856 30.2064 123.856H32.0264V123.73C32.0264 123.189 31.8771 122.783 31.5784 122.512C31.2891 122.241 30.9111 122.106 30.4444 122.106C30.0338 122.106 29.6744 122.209 29.3664 122.414C29.0678 122.61 28.8858 122.904 28.8204 123.296H27.3364C27.3831 122.792 27.5511 122.363 27.8404 122.008C28.1391 121.644 28.5124 121.369 28.9604 121.182C29.4178 120.986 29.9171 120.888 30.4584 120.888C31.4291 120.888 32.1804 121.145 32.7124 121.658C33.2444 122.162 33.5104 122.853 33.5104 123.73V128H32.2224L32.0964 126.81C31.9004 127.193 31.6158 127.515 31.2424 127.776C30.8691 128.037 30.3791 128.168 29.7724 128.168ZM30.0664 126.964C30.4678 126.964 30.8038 126.871 31.0744 126.684C31.3544 126.488 31.5691 126.231 31.7184 125.914C31.8771 125.597 31.9751 125.247 32.0124 124.864H30.3604C29.7724 124.864 29.3524 124.967 29.1004 125.172C28.8578 125.377 28.7364 125.634 28.7364 125.942C28.7364 126.259 28.8531 126.511 29.0864 126.698C29.3291 126.875 29.6558 126.964 30.0664 126.964ZM38.0127 128.168C37.1354 128.168 36.4121 127.953 35.8427 127.524C35.2734 127.095 34.9467 126.525 34.8627 125.816H36.3607C36.4354 126.133 36.6127 126.409 36.8927 126.642C37.1727 126.866 37.5414 126.978 37.9987 126.978C38.4467 126.978 38.7734 126.885 38.9787 126.698C39.1841 126.511 39.2867 126.297 39.2867 126.054C39.2867 125.699 39.1421 125.461 38.8527 125.34C38.5727 125.209 38.1807 125.093 37.6767 124.99C37.2847 124.906 36.8927 124.794 36.5007 124.654C36.1181 124.514 35.7961 124.318 35.5347 124.066C35.2827 123.805 35.1567 123.455 35.1567 123.016C35.1567 122.409 35.3901 121.905 35.8567 121.504C36.3234 121.093 36.9767 120.888 37.8167 120.888C38.5914 120.888 39.2167 121.075 39.6927 121.448C40.1781 121.821 40.4627 122.349 40.5467 123.03H39.1187C39.0721 122.731 38.9321 122.498 38.6987 122.33C38.4747 122.162 38.1714 122.078 37.7887 122.078C37.4154 122.078 37.1261 122.157 36.9207 122.316C36.7154 122.465 36.6127 122.661 36.6127 122.904C36.6127 123.147 36.7527 123.338 37.0327 123.478C37.3221 123.618 37.7001 123.744 38.1667 123.856C38.6334 123.959 39.0627 124.08 39.4547 124.22C39.8561 124.351 40.1781 124.547 40.4207 124.808C40.6634 125.069 40.7847 125.452 40.7847 125.956C40.7941 126.591 40.5467 127.118 40.0427 127.538C39.5481 127.958 38.8714 128.168 38.0127 128.168ZM43.2448 119.74C42.9648 119.74 42.7315 119.656 42.5448 119.488C42.3675 119.311 42.2788 119.091 42.2788 118.83C42.2788 118.569 42.3675 118.354 42.5448 118.186C42.7315 118.009 42.9648 117.92 43.2448 117.92C43.5248 117.92 43.7535 118.009 43.9308 118.186C44.1175 118.354 44.2108 118.569 44.2108 118.83C44.2108 119.091 44.1175 119.311 43.9308 119.488C43.7535 119.656 43.5248 119.74 43.2448 119.74ZM42.5028 128V121.056H43.9868V128H42.5028ZM52.2452 128.168C51.3678 128.168 50.6445 127.953 50.0752 127.524C49.5058 127.095 49.1792 126.525 49.0952 125.816H50.5932C50.6678 126.133 50.8452 126.409 51.1252 126.642C51.4052 126.866 51.7738 126.978 52.2312 126.978C52.6792 126.978 53.0058 126.885 53.2112 126.698C53.4165 126.511 53.5192 126.297 53.5192 126.054C53.5192 125.699 53.3745 125.461 53.0852 125.34C52.8052 125.209 52.4132 125.093 51.9092 124.99C51.5172 124.906 51.1252 124.794 50.7332 124.654C50.3505 124.514 50.0285 124.318 49.7672 124.066C49.5152 123.805 49.3892 123.455 49.3892 123.016C49.3892 122.409 49.6225 121.905 50.0892 121.504C50.5558 121.093 51.2092 120.888 52.0492 120.888C52.8238 120.888 53.4492 121.075 53.9252 121.448C54.4105 121.821 54.6952 122.349 54.7792 123.03H53.3512C53.3045 122.731 53.1645 122.498 52.9312 122.33C52.7072 122.162 52.4038 122.078 52.0212 122.078C51.6478 122.078 51.3585 122.157 51.1532 122.316C50.9478 122.465 50.8452 122.661 50.8452 122.904C50.8452 123.147 50.9852 123.338 51.2652 123.478C51.5545 123.618 51.9325 123.744 52.3992 123.856C52.8658 123.959 53.2952 124.08 53.6872 124.22C54.0885 124.351 54.4105 124.547 54.6532 124.808C54.8958 125.069 55.0172 125.452 55.0172 125.956C55.0265 126.591 54.7792 127.118 54.2752 127.538C53.7805 127.958 53.1038 128.168 52.2452 128.168ZM59.8852 128.168C59.2039 128.168 58.5972 128.019 58.0652 127.72C57.5426 127.412 57.1319 126.987 56.8332 126.446C56.5346 125.905 56.3852 125.275 56.3852 124.556C56.3852 123.828 56.5299 123.189 56.8192 122.638C57.1179 122.087 57.5286 121.658 58.0512 121.35C58.5832 121.042 59.1992 120.888 59.8992 120.888C60.5806 120.888 61.1732 121.042 61.6772 121.35C62.1812 121.649 62.5732 122.05 62.8532 122.554C63.1332 123.058 63.2732 123.613 63.2732 124.22C63.2732 124.313 63.2686 124.416 63.2592 124.528C63.2592 124.631 63.2546 124.747 63.2452 124.878H57.8412C57.8879 125.55 58.1072 126.063 58.4992 126.418C58.9006 126.763 59.3626 126.936 59.8852 126.936C60.3052 126.936 60.6552 126.843 60.9352 126.656C61.2246 126.46 61.4392 126.199 61.5792 125.872H63.0632C62.8766 126.525 62.5032 127.071 61.9432 127.51C61.3926 127.949 60.7066 128.168 59.8852 128.168ZM59.8852 122.106C59.3906 122.106 58.9519 122.255 58.5692 122.554C58.1866 122.843 57.9532 123.282 57.8692 123.87H61.7892C61.7612 123.329 61.5699 122.899 61.2152 122.582C60.8606 122.265 60.4172 122.106 59.8852 122.106ZM64.813 128V117.92H66.297V123.926L68.957 121.056H70.735L67.781 124.206L71.169 128H69.293L66.297 124.444V128H64.813ZM74.5205 128.168C73.9325 128.168 73.4471 128.07 73.0645 127.874C72.6818 127.678 72.3971 127.421 72.2105 127.104C72.0238 126.777 71.9305 126.423 71.9305 126.04C71.9305 125.368 72.1918 124.836 72.7145 124.444C73.2371 124.052 73.9838 123.856 74.9545 123.856H76.7745V123.73C76.7745 123.189 76.6251 122.783 76.3265 122.512C76.0371 122.241 75.6591 122.106 75.1925 122.106C74.7818 122.106 74.4225 122.209 74.1145 122.414C73.8158 122.61 73.6338 122.904 73.5685 123.296H72.0845C72.1311 122.792 72.2991 122.363 72.5885 122.008C72.8871 121.644 73.2605 121.369 73.7085 121.182C74.1658 120.986 74.6651 120.888 75.2065 120.888C76.1771 120.888 76.9285 121.145 77.4605 121.658C77.9925 122.162 78.2585 122.853 78.2585 123.73V128H76.9705L76.8445 126.81C76.6485 127.193 76.3638 127.515 75.9905 127.776C75.6171 128.037 75.1271 128.168 74.5205 128.168ZM74.8145 126.964C75.2158 126.964 75.5518 126.871 75.8225 126.684C76.1025 126.488 76.3171 126.231 76.4665 125.914C76.6251 125.597 76.7231 125.247 76.7605 124.864H75.1085C74.5205 124.864 74.1005 124.967 73.8485 125.172C73.6058 125.377 73.4845 125.634 73.4845 125.942C73.4845 126.259 73.6011 126.511 73.8345 126.698C74.0771 126.875 74.4038 126.964 74.8145 126.964ZM79.9888 128V121.056H81.3188L81.4448 122.372C81.6874 121.915 82.0234 121.555 82.4528 121.294C82.8914 121.023 83.4188 120.888 84.0348 120.888V122.442H83.6288C83.2181 122.442 82.8494 122.512 82.5228 122.652C82.2054 122.783 81.9488 123.011 81.7528 123.338C81.5661 123.655 81.4728 124.099 81.4728 124.668V128H79.9888ZM87.6591 128.168C87.0711 128.168 86.5858 128.07 86.2031 127.874C85.8205 127.678 85.5358 127.421 85.3491 127.104C85.1625 126.777 85.0691 126.423 85.0691 126.04C85.0691 125.368 85.3305 124.836 85.8531 124.444C86.3758 124.052 87.1225 123.856 88.0931 123.856H89.9131V123.73C89.9131 123.189 89.7638 122.783 89.4651 122.512C89.1758 122.241 88.7978 122.106 88.3311 122.106C87.9205 122.106 87.5611 122.209 87.2531 122.414C86.9545 122.61 86.7725 122.904 86.7071 123.296H85.2231C85.2698 122.792 85.4378 122.363 85.7271 122.008C86.0258 121.644 86.3991 121.369 86.8471 121.182C87.3045 120.986 87.8038 120.888 88.3451 120.888C89.3158 120.888 90.0671 121.145 90.5991 121.658C91.1311 122.162 91.3971 122.853 91.3971 123.73V128H90.1091L89.9831 126.81C89.7871 127.193 89.5025 127.515 89.1291 127.776C88.7558 128.037 88.2658 128.168 87.6591 128.168ZM87.9531 126.964C88.3545 126.964 88.6905 126.871 88.9611 126.684C89.2411 126.488 89.4558 126.231 89.6051 125.914C89.7638 125.597 89.8618 125.247 89.8991 124.864H88.2471C87.6591 124.864 87.2391 124.967 86.9871 125.172C86.7445 125.377 86.6231 125.634 86.6231 125.942C86.6231 126.259 86.7398 126.511 86.9731 126.698C87.2158 126.875 87.5425 126.964 87.9531 126.964ZM93.1275 128V121.056H94.4435L94.5555 122.274C94.7701 121.845 95.0828 121.509 95.4935 121.266C95.9135 121.014 96.3941 120.888 96.9355 120.888C97.7755 120.888 98.4335 121.149 98.9095 121.672C99.3948 122.195 99.6375 122.974 99.6375 124.01V128H98.1675V124.164C98.1675 122.82 97.6168 122.148 96.5155 122.148C95.9648 122.148 95.5075 122.344 95.1435 122.736C94.7888 123.128 94.6115 123.688 94.6115 124.416V128H93.1275ZM104.227 125.872C103.863 125.872 103.527 125.83 103.219 125.746L102.617 126.334C102.72 126.399 102.846 126.455 102.995 126.502C103.145 126.549 103.355 126.591 103.625 126.628C103.896 126.665 104.265 126.703 104.731 126.74C105.655 126.824 106.323 127.048 106.733 127.412C107.144 127.767 107.349 128.243 107.349 128.84C107.349 129.251 107.237 129.638 107.013 130.002C106.799 130.375 106.458 130.674 105.991 130.898C105.534 131.131 104.946 131.248 104.227 131.248C103.257 131.248 102.468 131.061 101.861 130.688C101.264 130.324 100.965 129.769 100.965 129.022C100.965 128.733 101.04 128.443 101.189 128.154C101.348 127.874 101.595 127.608 101.931 127.356C101.735 127.272 101.563 127.183 101.413 127.09C101.273 126.987 101.147 126.885 101.035 126.782V126.446L102.239 125.214C101.698 124.747 101.427 124.136 101.427 123.38C101.427 122.923 101.535 122.507 101.749 122.134C101.973 121.751 102.295 121.448 102.715 121.224C103.135 121 103.639 120.888 104.227 120.888C104.619 120.888 104.983 120.944 105.319 121.056H107.909V122.036L106.677 122.106C106.901 122.489 107.013 122.913 107.013 123.38C107.013 123.847 106.901 124.267 106.677 124.64C106.463 125.013 106.145 125.312 105.725 125.536C105.315 125.76 104.815 125.872 104.227 125.872ZM104.227 124.71C104.657 124.71 105.002 124.598 105.263 124.374C105.534 124.141 105.669 123.814 105.669 123.394C105.669 122.965 105.534 122.638 105.263 122.414C105.002 122.19 104.657 122.078 104.227 122.078C103.789 122.078 103.434 122.19 103.163 122.414C102.902 122.638 102.771 122.965 102.771 123.394C102.771 123.814 102.902 124.141 103.163 124.374C103.434 124.598 103.789 124.71 104.227 124.71ZM102.365 128.882C102.365 129.283 102.543 129.582 102.897 129.778C103.252 129.983 103.695 130.086 104.227 130.086C104.741 130.086 105.156 129.974 105.473 129.75C105.791 129.535 105.949 129.246 105.949 128.882C105.949 128.611 105.842 128.378 105.627 128.182C105.413 127.995 105.007 127.879 104.409 127.832C103.961 127.804 103.565 127.762 103.219 127.706C102.893 127.883 102.669 128.075 102.547 128.28C102.426 128.485 102.365 128.686 102.365 128.882Z" fill="#FA6775"/>
<path d="M112.167 125H123.833" stroke="#FA6775" stroke-width="1.4375" stroke-linecap="round" stroke-linejoin="round"/>
<path d="M118 119.167L123.833 125L118 130.833" stroke="#FA6775" stroke-width="1.4375" stroke-linecap="round" stroke-linejoin="round"/>
<path d="M0.74 66V59H2.89C4.12333 59 5.03 59.3133 5.61 59.94C6.19667 60.5667 6.49 61.4267 6.49 62.52C6.49 63.5933 6.19667 64.4433 5.61 65.07C5.03 65.69 4.12333 66 2.89 66H0.74ZM1.58 65.3H2.87C3.55 65.3 4.09 65.19 4.49 64.97C4.89667 64.7433 5.18667 64.4233 5.36 64.01C5.53333 63.59 5.62 63.0933 5.62 62.52C5.62 61.9333 5.53333 61.43 5.36 61.01C5.18667 60.59 4.89667 60.2667 4.49 60.04C4.09 59.8133 3.55 59.7 2.87 59.7H1.58V65.3ZM9.91289 66.12C9.44622 66.12 9.02622 66.0133 8.65289 65.8C8.27956 65.5867 7.98289 65.2867 7.76289 64.9C7.54956 64.5067 7.44289 64.0467 7.44289 63.52C7.44289 62.9933 7.55289 62.5367 7.77289 62.15C7.99289 61.7567 8.28956 61.4533 8.66289 61.24C9.04289 61.0267 9.46622 60.92 9.93289 60.92C10.3996 60.92 10.8196 61.0267 11.1929 61.24C11.5662 61.4533 11.8596 61.7567 12.0729 62.15C12.2929 62.5367 12.4029 62.9933 12.4029 63.52C12.4029 64.0467 12.2929 64.5067 12.0729 64.9C11.8529 65.2867 11.5529 65.5867 11.1729 65.8C10.7996 66.0133 10.3796 66.12 9.91289 66.12ZM9.91289 65.4C10.1996 65.4 10.4662 65.33 10.7129 65.19C10.9596 65.05 11.1596 64.84 11.3129 64.56C11.4662 64.28 11.5429 63.9333 11.5429 63.52C11.5429 63.1067 11.4662 62.76 11.3129 62.48C11.1662 62.2 10.9696 61.99 10.7229 61.85C10.4762 61.71 10.2129 61.64 9.93289 61.64C9.64622 61.64 9.37956 61.71 9.13289 61.85C8.88622 61.99 8.68622 62.2 8.53289 62.48C8.37956 62.76 8.30289 63.1067 8.30289 63.52C8.30289 63.9333 8.37956 64.28 8.53289 64.56C8.68622 64.84 8.88289 65.05 9.12289 65.19C9.36956 65.33 9.63289 65.4 9.91289 65.4ZM13.5709 66V61.04H14.3309L14.3809 61.93C14.5409 61.6167 14.7709 61.37 15.0709 61.19C15.3709 61.01 15.7109 60.92 16.0909 60.92C16.6775 60.92 17.1442 61.1 17.4909 61.46C17.8442 61.8133 18.0209 62.36 18.0209 63.1V66H17.1809V63.19C17.1809 62.1567 16.7542 61.64 15.9009 61.64C15.4742 61.64 15.1175 61.7967 14.8309 62.11C14.5509 62.4167 14.4109 62.8567 14.4109 63.43V66H13.5709ZM20.9435 66.12C20.5302 66.12 20.1868 66.05 19.9135 65.91C19.6402 65.77 19.4368 65.5833 19.3035 65.35C19.1702 65.1167 19.1035 64.8633 19.1035 64.59C19.1035 64.0833 19.2968 63.6933 19.6835 63.42C20.0702 63.1467 20.5968 63.01 21.2635 63.01H22.6035V62.95C22.6035 62.5167 22.4902 62.19 22.2635 61.97C22.0368 61.7433 21.7335 61.63 21.3535 61.63C21.0268 61.63 20.7435 61.7133 20.5035 61.88C20.2702 62.04 20.1235 62.2767 20.0635 62.59H19.2035C19.2368 62.23 19.3568 61.9267 19.5635 61.68C19.7768 61.4333 20.0402 61.2467 20.3535 61.12C20.6668 60.9867 21.0002 60.92 21.3535 60.92C22.0468 60.92 22.5668 61.1067 22.9135 61.48C23.2668 61.8467 23.4435 62.3367 23.4435 62.95V66H22.6935L22.6435 65.11C22.5035 65.39 22.2968 65.63 22.0235 65.83C21.7568 66.0233 21.3968 66.12 20.9435 66.12ZM21.0735 65.41C21.3935 65.41 21.6668 65.3267 21.8935 65.16C22.1268 64.9933 22.3035 64.7767 22.4235 64.51C22.5435 64.2433 22.6035 63.9633 22.6035 63.67V63.66H21.3335C20.8402 63.66 20.4902 63.7467 20.2835 63.92C20.0835 64.0867 19.9835 64.2967 19.9835 64.55C19.9835 64.81 20.0768 65.02 20.2635 65.18C20.4568 65.3333 20.7268 65.41 21.0735 65.41ZM26.6037 66.12C26.0103 66.12 25.517 65.97 25.1237 65.67C24.7303 65.37 24.5003 64.9633 24.4337 64.45H25.2937C25.347 64.71 25.4837 64.9367 25.7037 65.13C25.9303 65.3167 26.2337 65.41 26.6137 65.41C26.967 65.41 27.227 65.3367 27.3937 65.19C27.5603 65.0367 27.6437 64.8567 27.6437 64.65C27.6437 64.35 27.5337 64.15 27.3137 64.05C27.1003 63.95 26.797 63.86 26.4037 63.78C26.137 63.7267 25.8703 63.65 25.6037 63.55C25.337 63.45 25.1137 63.31 24.9337 63.13C24.7537 62.9433 24.6637 62.7 24.6637 62.4C24.6637 61.9667 24.8237 61.6133 25.1437 61.34C25.4703 61.06 25.9103 60.92 26.4637 60.92C26.9903 60.92 27.4203 61.0533 27.7537 61.32C28.0937 61.58 28.2903 61.9533 28.3437 62.44H27.5137C27.4803 62.1867 27.3703 61.99 27.1837 61.85C27.0037 61.7033 26.7603 61.63 26.4537 61.63C26.1537 61.63 25.9203 61.6933 25.7537 61.82C25.5937 61.9467 25.5137 62.1133 25.5137 62.32C25.5137 62.52 25.617 62.6767 25.8237 62.79C26.037 62.9033 26.3237 63 26.6837 63.08C26.9903 63.1467 27.2803 63.23 27.5537 63.33C27.8337 63.4233 28.0603 63.5667 28.2337 63.76C28.4137 63.9467 28.5037 64.22 28.5037 64.58C28.5103 65.0267 28.3403 65.3967 27.9937 65.69C27.6537 65.9767 27.1903 66.12 26.6037 66.12ZM30.2137 59.94C30.047 59.94 29.907 59.8867 29.7937 59.78C29.687 59.6667 29.6337 59.5267 29.6337 59.36C29.6337 59.2 29.687 59.0667 29.7937 58.96C29.907 58.8533 30.047 58.8 30.2137 58.8C30.3737 58.8 30.5103 58.8533 30.6237 58.96C30.737 59.0667 30.7937 59.2 30.7937 59.36C30.7937 59.5267 30.737 59.6667 30.6237 59.78C30.5103 59.8867 30.3737 59.94 30.2137 59.94ZM29.7937 66V61.04H30.6337V66H29.7937ZM36.6427 66.12C36.0494 66.12 35.5561 65.97 35.1627 65.67C34.7694 65.37 34.5394 64.9633 34.4727 64.45H35.3327C35.3861 64.71 35.5227 64.9367 35.7427 65.13C35.9694 65.3167 36.2727 65.41 36.6527 65.41C37.0061 65.41 37.2661 65.3367 37.4327 65.19C37.5994 65.0367 37.6827 64.8567 37.6827 64.65C37.6827 64.35 37.5727 64.15 37.3527 64.05C37.1394 63.95 36.8361 63.86 36.4427 63.78C36.1761 63.7267 35.9094 63.65 35.6427 63.55C35.3761 63.45 35.1527 63.31 34.9727 63.13C34.7927 62.9433 34.7027 62.7 34.7027 62.4C34.7027 61.9667 34.8627 61.6133 35.1827 61.34C35.5094 61.06 35.9494 60.92 36.5027 60.92C37.0294 60.92 37.4594 61.0533 37.7927 61.32C38.1327 61.58 38.3294 61.9533 38.3827 62.44H37.5527C37.5194 62.1867 37.4094 61.99 37.2227 61.85C37.0427 61.7033 36.7994 61.63 36.4927 61.63C36.1927 61.63 35.9594 61.6933 35.7927 61.82C35.6327 61.9467 35.5527 62.1133 35.5527 62.32C35.5527 62.52 35.6561 62.6767 35.8627 62.79C36.0761 62.9033 36.3627 63 36.7227 63.08C37.0294 63.1467 37.3194 63.23 37.5927 63.33C37.8727 63.4233 38.0994 63.5667 38.2727 63.76C38.4527 63.9467 38.5427 64.22 38.5427 64.58C38.5494 65.0267 38.3794 65.3967 38.0327 65.69C37.6927 65.9767 37.2294 66.12 36.6427 66.12ZM41.9727 66.12C41.4994 66.12 41.0794 66.0133 40.7127 65.8C40.3461 65.58 40.0561 65.2767 39.8427 64.89C39.6361 64.5033 39.5327 64.0467 39.5327 63.52C39.5327 63 39.6361 62.5467 39.8427 62.16C40.0494 61.7667 40.3361 61.4633 40.7027 61.25C41.0761 61.03 41.5061 60.92 41.9927 60.92C42.4727 60.92 42.8861 61.03 43.2327 61.25C43.5861 61.4633 43.8561 61.7467 44.0427 62.1C44.2294 62.4533 44.3227 62.8333 44.3227 63.24C44.3227 63.3133 44.3194 63.3867 44.3127 63.46C44.3127 63.5333 44.3127 63.6167 44.3127 63.71H40.3627C40.3827 64.09 40.4694 64.4067 40.6227 64.66C40.7827 64.9067 40.9794 65.0933 41.2127 65.22C41.4527 65.3467 41.7061 65.41 41.9727 65.41C42.3194 65.41 42.6094 65.33 42.8427 65.17C43.0761 65.01 43.2461 64.7933 43.3527 64.52H44.1827C44.0494 64.98 43.7927 65.3633 43.4127 65.67C43.0394 65.97 42.5594 66.12 41.9727 66.12ZM41.9727 61.63C41.5727 61.63 41.2161 61.7533 40.9027 62C40.5961 62.24 40.4194 62.5933 40.3727 63.06H43.4927C43.4727 62.6133 43.3194 62.2633 43.0327 62.01C42.7461 61.7567 42.3927 61.63 41.9727 61.63ZM45.4361 66V58.8H46.2761V63.13L48.3061 61.04H49.3361L47.1361 63.28L49.6161 66H48.5461L46.2761 63.43V66H45.4361ZM52.0861 66.12C51.6728 66.12 51.3294 66.05 51.0561 65.91C50.7828 65.77 50.5794 65.5833 50.4461 65.35C50.3128 65.1167 50.2461 64.8633 50.2461 64.59C50.2461 64.0833 50.4394 63.6933 50.8261 63.42C51.2128 63.1467 51.7394 63.01 52.4061 63.01H53.7461V62.95C53.7461 62.5167 53.6328 62.19 53.4061 61.97C53.1794 61.7433 52.8761 61.63 52.4961 61.63C52.1694 61.63 51.8861 61.7133 51.6461 61.88C51.4128 62.04 51.2661 62.2767 51.2061 62.59H50.3461C50.3794 62.23 50.4994 61.9267 50.7061 61.68C50.9194 61.4333 51.1828 61.2467 51.4961 61.12C51.8094 60.9867 52.1428 60.92 52.4961 60.92C53.1894 60.92 53.7094 61.1067 54.0561 61.48C54.4094 61.8467 54.5861 62.3367 54.5861 62.95V66H53.8361L53.7861 65.11C53.6461 65.39 53.4394 65.63 53.1661 65.83C52.8994 66.0233 52.5394 66.12 52.0861 66.12ZM52.2161 65.41C52.5361 65.41 52.8094 65.3267 53.0361 65.16C53.2694 64.9933 53.4461 64.7767 53.5661 64.51C53.6861 64.2433 53.7461 63.9633 53.7461 63.67V63.66H52.4761C51.9828 63.66 51.6328 63.7467 51.4261 63.92C51.2261 64.0867 51.1261 64.2967 51.1261 64.55C51.1261 64.81 51.2194 65.02 51.4061 65.18C51.5994 65.3333 51.8694 65.41 52.2161 65.41ZM55.8463 66V61.04H56.6063L56.6763 61.99C56.8296 61.6633 57.0629 61.4033 57.3763 61.21C57.6896 61.0167 58.0763 60.92 58.5363 60.92V61.8H58.3063C58.0129 61.8 57.7429 61.8533 57.4963 61.96C57.2496 62.06 57.0529 62.2333 56.9063 62.48C56.7596 62.7267 56.6863 63.0667 56.6863 63.5V66H55.8463ZM61.1291 66.12C60.7157 66.12 60.3724 66.05 60.0991 65.91C59.8257 65.77 59.6224 65.5833 59.4891 65.35C59.3557 65.1167 59.2891 64.8633 59.2891 64.59C59.2891 64.0833 59.4824 63.6933 59.8691 63.42C60.2557 63.1467 60.7824 63.01 61.4491 63.01H62.7891V62.95C62.7891 62.5167 62.6757 62.19 62.4491 61.97C62.2224 61.7433 61.9191 61.63 61.5391 61.63C61.2124 61.63 60.9291 61.7133 60.6891 61.88C60.4557 62.04 60.3091 62.2767 60.2491 62.59H59.3891C59.4224 62.23 59.5424 61.9267 59.7491 61.68C59.9624 61.4333 60.2257 61.2467 60.5391 61.12C60.8524 60.9867 61.1857 60.92 61.5391 60.92C62.2324 60.92 62.7524 61.1067 63.0991 61.48C63.4524 61.8467 63.6291 62.3367 63.6291 62.95V66H62.8791L62.8291 65.11C62.6891 65.39 62.4824 65.63 62.2091 65.83C61.9424 66.0233 61.5824 66.12 61.1291 66.12ZM61.2591 65.41C61.5791 65.41 61.8524 65.3267 62.0791 65.16C62.3124 64.9933 62.4891 64.7767 62.6091 64.51C62.7291 64.2433 62.7891 63.9633 62.7891 63.67V63.66H61.5191C61.0257 63.66 60.6757 63.7467 60.4691 63.92C60.2691 64.0867 60.1691 64.2967 60.1691 64.55C60.1691 64.81 60.2624 65.02 60.4491 65.18C60.6424 65.3333 60.9124 65.41 61.2591 65.41ZM64.8892 66V61.04H65.6492L65.6992 61.93C65.8592 61.6167 66.0892 61.37 66.3892 61.19C66.6892 61.01 67.0292 60.92 67.4092 60.92C67.9959 60.92 68.4626 61.1 68.8092 61.46C69.1626 61.8133 69.3392 62.36 69.3392 63.1V66H68.4992V63.19C68.4992 62.1567 68.0726 61.64 67.2192 61.64C66.7926 61.64 66.4359 61.7967 66.1492 62.11C65.8692 62.4167 65.7292 62.8567 65.7292 63.43V66H64.8892ZM72.5719 64.44C72.2919 64.44 72.0352 64.4033 71.8019 64.33L71.3019 64.8C71.3752 64.8533 71.4652 64.9 71.5719 64.94C71.6852 64.9733 71.8452 65.0067 72.0519 65.04C72.2585 65.0667 72.5485 65.0967 72.9219 65.13C73.5885 65.1767 74.0652 65.33 74.3519 65.59C74.6385 65.85 74.7819 66.19 74.7819 66.61C74.7819 66.8967 74.7019 67.17 74.5419 67.43C74.3885 67.69 74.1485 67.9033 73.8219 68.07C73.5019 68.2367 73.0885 68.32 72.5819 68.32C72.1352 68.32 71.7385 68.26 71.3919 68.14C71.0452 68.0267 70.7752 67.85 70.5819 67.61C70.3885 67.3767 70.2919 67.08 70.2919 66.72C70.2919 66.5333 70.3419 66.33 70.4419 66.11C70.5419 65.8967 70.7285 65.6933 71.0019 65.5C70.8552 65.44 70.7285 65.3767 70.6219 65.31C70.5219 65.2367 70.4285 65.1567 70.3419 65.07V64.84L71.1919 64C70.7985 63.6667 70.6019 63.2267 70.6019 62.68C70.6019 62.3533 70.6785 62.0567 70.8319 61.79C70.9852 61.5233 71.2085 61.3133 71.5019 61.16C71.7952 61 72.1519 60.92 72.5719 60.92C72.8585 60.92 73.1185 60.96 73.3519 61.04H75.1819V61.67L74.2519 61.71C74.4452 61.99 74.5419 62.3133 74.5419 62.68C74.5419 63.0067 74.4619 63.3033 74.3019 63.57C74.1485 63.8367 73.9252 64.05 73.6319 64.21C73.3452 64.3633 72.9919 64.44 72.5719 64.44ZM72.5719 63.75C72.9252 63.75 73.2052 63.66 73.4119 63.48C73.6252 63.2933 73.7319 63.0267 73.7319 62.68C73.7319 62.34 73.6252 62.08 73.4119 61.9C73.2052 61.7133 72.9252 61.62 72.5719 61.62C72.2119 61.62 71.9252 61.7133 71.7119 61.9C71.5052 62.08 71.4019 62.34 71.4019 62.68C71.4019 63.0267 71.5052 63.2933 71.7119 63.48C71.9252 63.66 72.2119 63.75 72.5719 63.75ZM71.1119 66.64C71.1119 66.9733 71.2519 67.22 71.5319 67.38C71.8119 67.5467 72.1619 67.63 72.5819 67.63C72.9952 67.63 73.3252 67.54 73.5719 67.36C73.8252 67.18 73.9519 66.94 73.9519 66.64C73.9519 66.4267 73.8652 66.24 73.6919 66.08C73.5185 65.9267 73.1985 65.8367 72.7319 65.81C72.3652 65.7833 72.0485 65.75 71.7819 65.71C71.5085 65.8567 71.3285 66.0133 71.2419 66.18C71.1552 66.3533 71.1119 66.5067 71.1119 66.64ZM75.4595 67.19L76.0395 64.98H76.9095L76.0395 67.19H75.4595ZM0.69 79V71.8H1.53V76.13L3.56 74.04H4.59L2.39 76.28L4.87 79H3.8L1.53 76.43V79H0.69ZM7.53906 79.12C6.9524 79.12 6.48573 78.9433 6.13906 78.59C5.7924 78.23 5.61906 77.68 5.61906 76.94V74.04H6.45906V76.85C6.45906 77.8833 6.8824 78.4 7.72906 78.4C8.1624 78.4 8.51906 78.2467 8.79906 77.94C9.08573 77.6267 9.22906 77.1833 9.22906 76.61V74.04H10.0691V79H9.30906L9.24906 78.11C9.09573 78.4233 8.86573 78.67 8.55906 78.85C8.25906 79.03 7.91906 79.12 7.53906 79.12ZM11.4517 79V74.04H12.2117L12.2717 74.76C12.4317 74.4933 12.6451 74.2867 12.9117 74.14C13.1784 73.9933 13.4784 73.92 13.8117 73.92C14.2051 73.92 14.5417 74 14.8217 74.16C15.1084 74.32 15.3284 74.5633 15.4817 74.89C15.6551 74.59 15.8917 74.3533 16.1917 74.18C16.4984 74.0067 16.8284 73.92 17.1817 73.92C17.7751 73.92 18.2484 74.1 18.6017 74.46C18.9551 74.8133 19.1317 75.36 19.1317 76.1V79H18.3017V76.19C18.3017 75.6767 18.1984 75.29 17.9917 75.03C17.7851 74.77 17.4884 74.64 17.1017 74.64C16.7017 74.64 16.3684 74.7967 16.1017 75.11C15.8417 75.4167 15.7117 75.8567 15.7117 76.43V79H14.8717V76.19C14.8717 75.6767 14.7684 75.29 14.5617 75.03C14.3551 74.77 14.0584 74.64 13.6717 74.64C13.2784 74.64 12.9484 74.7967 12.6817 75.11C12.4217 75.4167 12.2917 75.8567 12.2917 76.43V79H11.4517ZM20.397 81.2V74.04H21.157L21.237 74.86C21.397 74.62 21.6237 74.4033 21.917 74.21C22.217 74.0167 22.597 73.92 23.057 73.92C23.5504 73.92 23.9804 74.0333 24.347 74.26C24.7137 74.4867 24.997 74.7967 25.197 75.19C25.4037 75.5833 25.507 76.03 25.507 76.53C25.507 77.03 25.4037 77.4767 25.197 77.87C24.997 78.2567 24.7104 78.5633 24.337 78.79C23.9704 79.01 23.5404 79.12 23.047 79.12C22.6404 79.12 22.277 79.0367 21.957 78.87C21.6437 78.7033 21.4037 78.47 21.237 78.17V81.2H20.397ZM22.957 78.39C23.2904 78.39 23.5837 78.3133 23.837 78.16C24.0904 78 24.2904 77.78 24.437 77.5C24.5837 77.22 24.657 76.8933 24.657 76.52C24.657 76.1467 24.5837 75.82 24.437 75.54C24.2904 75.26 24.0904 75.0433 23.837 74.89C23.5837 74.73 23.2904 74.65 22.957 74.65C22.6237 74.65 22.3304 74.73 22.077 74.89C21.8237 75.0433 21.6237 75.26 21.477 75.54C21.3304 75.82 21.257 76.1467 21.257 76.52C21.257 76.8933 21.3304 77.22 21.477 77.5C21.6237 77.78 21.8237 78 22.077 78.16C22.3304 78.3133 22.6237 78.39 22.957 78.39ZM28.4863 79.12C27.8997 79.12 27.433 78.9433 27.0863 78.59C26.7397 78.23 26.5663 77.68 26.5663 76.94V74.04H27.4063V76.85C27.4063 77.8833 27.8297 78.4 28.6763 78.4C29.1097 78.4 29.4663 78.2467 29.7463 77.94C30.033 77.6267 30.1763 77.1833 30.1763 76.61V74.04H31.0163V79H30.2563L30.1963 78.11C30.043 78.4233 29.813 78.67 29.5063 78.85C29.2063 79.03 28.8663 79.12 28.4863 79.12ZM32.399 79V71.8H33.239V79H32.399ZM34.6158 79V71.8H35.4558V76.13L37.4858 74.04H38.5158L36.3158 76.28L38.7958 79H37.7258L35.4558 76.43V79H34.6158ZM41.2658 79.12C40.8524 79.12 40.5091 79.05 40.2358 78.91C39.9624 78.77 39.7591 78.5833 39.6258 78.35C39.4924 78.1167 39.4258 77.8633 39.4258 77.59C39.4258 77.0833 39.6191 76.6933 40.0058 76.42C40.3924 76.1467 40.9191 76.01 41.5858 76.01H42.9258V75.95C42.9258 75.5167 42.8124 75.19 42.5858 74.97C42.3591 74.7433 42.0558 74.63 41.6758 74.63C41.3491 74.63 41.0658 74.7133 40.8258 74.88C40.5924 75.04 40.4458 75.2767 40.3858 75.59H39.5258C39.5591 75.23 39.6791 74.9267 39.8858 74.68C40.0991 74.4333 40.3624 74.2467 40.6758 74.12C40.9891 73.9867 41.3224 73.92 41.6758 73.92C42.3691 73.92 42.8891 74.1067 43.2358 74.48C43.5891 74.8467 43.7658 75.3367 43.7658 75.95V79H43.0158L42.9658 78.11C42.8258 78.39 42.6191 78.63 42.3458 78.83C42.0791 79.0233 41.7191 79.12 41.2658 79.12ZM41.3958 78.41C41.7158 78.41 41.9891 78.3267 42.2158 78.16C42.4491 77.9933 42.6258 77.7767 42.7458 77.51C42.8658 77.2433 42.9258 76.9633 42.9258 76.67V76.66H41.6558C41.1624 76.66 40.8124 76.7467 40.6058 76.92C40.4058 77.0867 40.3058 77.2967 40.3058 77.55C40.3058 77.81 40.3991 78.02 40.5858 78.18C40.7791 78.3333 41.0491 78.41 41.3958 78.41ZM45.0259 79V74.04H45.7859L45.8359 74.93C45.9959 74.6167 46.2259 74.37 46.5259 74.19C46.8259 74.01 47.1659 73.92 47.5459 73.92C48.1326 73.92 48.5993 74.1 48.9459 74.46C49.2993 74.8133 49.4759 75.36 49.4759 76.1V79H48.6359V76.19C48.6359 75.1567 48.2093 74.64 47.3559 74.64C46.9293 74.64 46.5726 74.7967 46.2859 75.11C46.0059 75.4167 45.8659 75.8567 45.8659 76.43V79H45.0259ZM53.3951 81.2V74.04H54.1551L54.2351 74.86C54.3951 74.62 54.6217 74.4033 54.9151 74.21C55.2151 74.0167 55.5951 73.92 56.0551 73.92C56.5484 73.92 56.9784 74.0333 57.3451 74.26C57.7117 74.4867 57.9951 74.7967 58.1951 75.19C58.4017 75.5833 58.5051 76.03 58.5051 76.53C58.5051 77.03 58.4017 77.4767 58.1951 77.87C57.9951 78.2567 57.7084 78.5633 57.3351 78.79C56.9684 79.01 56.5384 79.12 56.0451 79.12C55.6384 79.12 55.2751 79.0367 54.9551 78.87C54.6417 78.7033 54.4017 78.47 54.2351 78.17V81.2H53.3951ZM55.9551 78.39C56.2884 78.39 56.5817 78.3133 56.8351 78.16C57.0884 78 57.2884 77.78 57.4351 77.5C57.5817 77.22 57.6551 76.8933 57.6551 76.52C57.6551 76.1467 57.5817 75.82 57.4351 75.54C57.2884 75.26 57.0884 75.0433 56.8351 74.89C56.5817 74.73 56.2884 74.65 55.9551 74.65C55.6217 74.65 55.3284 74.73 55.0751 74.89C54.8217 75.0433 54.6217 75.26 54.4751 75.54C54.3284 75.82 54.2551 76.1467 54.2551 76.52C54.2551 76.8933 54.3284 77.22 54.4751 77.5C54.6217 77.78 54.8217 78 55.0751 78.16C55.3284 78.3133 55.6217 78.39 55.9551 78.39ZM61.9344 79.12C61.4677 79.12 61.0477 79.0133 60.6744 78.8C60.301 78.5867 60.0044 78.2867 59.7844 77.9C59.571 77.5067 59.4644 77.0467 59.4644 76.52C59.4644 75.9933 59.5744 75.5367 59.7944 75.15C60.0144 74.7567 60.311 74.4533 60.6844 74.24C61.0644 74.0267 61.4877 73.92 61.9544 73.92C62.421 73.92 62.841 74.0267 63.2144 74.24C63.5877 74.4533 63.881 74.7567 64.0944 75.15C64.3144 75.5367 64.4244 75.9933 64.4244 76.52C64.4244 77.0467 64.3144 77.5067 64.0944 77.9C63.8744 78.2867 63.5744 78.5867 63.1944 78.8C62.821 79.0133 62.401 79.12 61.9344 79.12ZM61.9344 78.4C62.221 78.4 62.4877 78.33 62.7344 78.19C62.981 78.05 63.181 77.84 63.3344 77.56C63.4877 77.28 63.5644 76.9333 63.5644 76.52C63.5644 76.1067 63.4877 75.76 63.3344 75.48C63.1877 75.2 62.991 74.99 62.7444 74.85C62.4977 74.71 62.2344 74.64 61.9544 74.64C61.6677 74.64 61.401 74.71 61.1544 74.85C60.9077 74.99 60.7077 75.2 60.5544 75.48C60.401 75.76 60.3244 76.1067 60.3244 76.52C60.3244 76.9333 60.401 77.28 60.5544 77.56C60.7077 77.84 60.9044 78.05 61.1444 78.19C61.391 78.33 61.6544 78.4 61.9344 78.4ZM66.1023 72.94C65.9357 72.94 65.7957 72.8867 65.6823 72.78C65.5757 72.6667 65.5223 72.5267 65.5223 72.36C65.5223 72.2 65.5757 72.0667 65.6823 71.96C65.7957 71.8533 65.9357 71.8 66.1023 71.8C66.2623 71.8 66.399 71.8533 66.5123 71.96C66.6257 72.0667 66.6823 72.2 66.6823 72.36C66.6823 72.5267 66.6257 72.6667 66.5123 72.78C66.399 72.8867 66.2623 72.94 66.1023 72.94ZM65.6823 79V74.04H66.5223V79H65.6823ZM67.9849 79V74.04H68.7449L68.7949 74.93C68.9549 74.6167 69.1849 74.37 69.4849 74.19C69.7849 74.01 70.1249 73.92 70.5049 73.92C71.0916 73.92 71.5583 74.1 71.9049 74.46C72.2583 74.8133 72.4349 75.36 72.4349 76.1V79H71.5949V76.19C71.5949 75.1567 71.1683 74.64 70.3149 74.64C69.8883 74.64 69.5316 74.7967 69.2449 75.11C68.9649 75.4167 68.8249 75.8567 68.8249 76.43V79H67.9849ZM73.7076 79V74.04H74.4676L74.5176 74.93C74.6776 74.6167 74.9076 74.37 75.2076 74.19C75.5076 74.01 75.8476 73.92 76.2276 73.92C76.8142 73.92 77.2809 74.1 77.6276 74.46C77.9809 74.8133 78.1576 75.36 78.1576 76.1V79H77.3176V76.19C77.3176 75.1567 76.8909 74.64 76.0376 74.64C75.6109 74.64 75.2542 74.7967 74.9676 75.11C74.6876 75.4167 74.5476 75.8567 74.5476 76.43V79H73.7076ZM79.8238 81.2L81.0538 78.52H80.7638L78.7938 74.04H79.7038L81.3438 77.9L83.0838 74.04H83.9538L80.7038 81.2H79.8238ZM86.1779 79.12C85.7646 79.12 85.4212 79.05 85.1479 78.91C84.8746 78.77 84.6712 78.5833 84.5379 78.35C84.4046 78.1167 84.3379 77.8633 84.3379 77.59C84.3379 77.0833 84.5312 76.6933 84.9179 76.42C85.3046 76.1467 85.8312 76.01 86.4979 76.01H87.8379V75.95C87.8379 75.5167 87.7246 75.19 87.4979 74.97C87.2712 74.7433 86.9679 74.63 86.5879 74.63C86.2612 74.63 85.9779 74.7133 85.7379 74.88C85.5046 75.04 85.3579 75.2767 85.2979 75.59H84.4379C84.4712 75.23 84.5912 74.9267 84.7979 74.68C85.0112 74.4333 85.2746 74.2467 85.5879 74.12C85.9012 73.9867 86.2346 73.92 86.5879 73.92C87.2812 73.92 87.8012 74.1067 88.1479 74.48C88.5012 74.8467 88.6779 75.3367 88.6779 75.95V79H87.9279L87.8779 78.11C87.7379 78.39 87.5312 78.63 87.2579 78.83C86.9912 79.0233 86.6312 79.12 86.1779 79.12ZM86.3079 78.41C86.6279 78.41 86.9012 78.3267 87.1279 78.16C87.3612 77.9933 87.5379 77.7767 87.6579 77.51C87.7779 77.2433 87.8379 76.9633 87.8379 76.67V76.66H86.5679C86.0746 76.66 85.7246 76.7467 85.5179 76.92C85.3179 77.0867 85.2179 77.2967 85.2179 77.55C85.2179 77.81 85.3112 78.02 85.4979 78.18C85.6912 78.3333 85.9612 78.41 86.3079 78.41ZM89.268 80.19L89.848 77.98H90.718L89.848 80.19H89.268ZM96.6119 79.12C96.1185 79.12 95.6852 79.0067 95.3119 78.78C94.9452 78.5533 94.6585 78.2433 94.4519 77.85C94.2519 77.4567 94.1519 77.01 94.1519 76.51C94.1519 76.01 94.2552 75.5667 94.4619 75.18C94.6685 74.7867 94.9552 74.48 95.3219 74.26C95.6885 74.0333 96.1219 73.92 96.6219 73.92C97.0285 73.92 97.3885 74.0033 97.7019 74.17C98.0152 74.3367 98.2585 74.57 98.4319 74.87V71.8H99.2719V79H98.5119L98.4319 78.18C98.2719 78.42 98.0419 78.6367 97.7419 78.83C97.4419 79.0233 97.0652 79.12 96.6119 79.12ZM96.7019 78.39C97.0352 78.39 97.3285 78.3133 97.5819 78.16C97.8419 78 98.0419 77.78 98.1819 77.5C98.3285 77.22 98.4019 76.8933 98.4019 76.52C98.4019 76.1467 98.3285 75.82 98.1819 75.54C98.0419 75.26 97.8419 75.0433 97.5819 74.89C97.3285 74.73 97.0352 74.65 96.7019 74.65C96.3752 74.65 96.0819 74.73 95.8219 74.89C95.5685 75.0433 95.3685 75.26 95.2219 75.54C95.0819 75.82 95.0119 76.1467 95.0119 76.52C95.0119 76.8933 95.0819 77.22 95.2219 77.5C95.3685 77.78 95.5685 78 95.8219 78.16C96.0819 78.3133 96.3752 78.39 96.7019 78.39ZM102.291 79.12C101.878 79.12 101.535 79.05 101.261 78.91C100.988 78.77 100.785 78.5833 100.651 78.35C100.518 78.1167 100.451 77.8633 100.451 77.59C100.451 77.0833 100.645 76.6933 101.031 76.42C101.418 76.1467 101.945 76.01 102.611 76.01H103.951V75.95C103.951 75.5167 103.838 75.19 103.611 74.97C103.385 74.7433 103.081 74.63 102.701 74.63C102.375 74.63 102.091 74.7133 101.851 74.88C101.618 75.04 101.471 75.2767 101.411 75.59H100.551C100.585 75.23 100.705 74.9267 100.911 74.68C101.125 74.4333 101.388 74.2467 101.701 74.12C102.015 73.9867 102.348 73.92 102.701 73.92C103.395 73.92 103.915 74.1067 104.261 74.48C104.615 74.8467 104.791 75.3367 104.791 75.95V79H104.041L103.991 78.11C103.851 78.39 103.645 78.63 103.371 78.83C103.105 79.0233 102.745 79.12 102.291 79.12ZM102.421 78.41C102.741 78.41 103.015 78.3267 103.241 78.16C103.475 77.9933 103.651 77.7767 103.771 77.51C103.891 77.2433 103.951 76.9633 103.951 76.67V76.66H102.681C102.188 76.66 101.838 76.7467 101.631 76.92C101.431 77.0867 101.331 77.2967 101.331 77.55C101.331 77.81 101.425 78.02 101.611 78.18C101.805 78.3333 102.075 78.41 102.421 78.41ZM106.051 79V74.04H106.811L106.861 74.93C107.021 74.6167 107.251 74.37 107.551 74.19C107.851 74.01 108.191 73.92 108.571 73.92C109.158 73.92 109.625 74.1 109.971 74.46C110.325 74.8133 110.501 75.36 110.501 76.1V79H109.661V76.19C109.661 75.1567 109.235 74.64 108.381 74.64C107.955 74.64 107.598 74.7967 107.311 75.11C107.031 75.4167 106.891 75.8567 106.891 76.43V79H106.051ZM2.94 92.12C2.44667 92.12 2.01333 92.0067 1.64 91.78C1.27333 91.5533 0.986667 91.2433 0.78 90.85C0.58 90.4567 0.48 90.01 0.48 89.51C0.48 89.01 0.583333 88.5667 0.79 88.18C0.996667 87.7867 1.28333 87.48 1.65 87.26C2.01667 87.0333 2.45 86.92 2.95 86.92C3.35667 86.92 3.71667 87.0033 4.03 87.17C4.34333 87.3367 4.58667 87.57 4.76 87.87V84.8H5.6V92H4.84L4.76 91.18C4.6 91.42 4.37 91.6367 4.07 91.83C3.77 92.0233 3.39333 92.12 2.94 92.12ZM3.03 91.39C3.36333 91.39 3.65667 91.3133 3.91 91.16C4.17 91 4.37 90.78 4.51 90.5C4.65667 90.22 4.73 89.8933 4.73 89.52C4.73 89.1467 4.65667 88.82 4.51 88.54C4.37 88.26 4.17 88.0433 3.91 87.89C3.65667 87.73 3.36333 87.65 3.03 87.65C2.70333 87.65 2.41 87.73 2.15 87.89C1.89667 88.0433 1.69667 88.26 1.55 88.54C1.41 88.82 1.34 89.1467 1.34 89.52C1.34 89.8933 1.41 90.22 1.55 90.5C1.69667 90.78 1.89667 91 2.15 91.16C2.41 91.3133 2.70333 91.39 3.03 91.39ZM8.6193 92.12C8.20596 92.12 7.86263 92.05 7.5893 91.91C7.31596 91.77 7.11263 91.5833 6.9793 91.35C6.84596 91.1167 6.7793 90.8633 6.7793 90.59C6.7793 90.0833 6.97263 89.6933 7.3593 89.42C7.74596 89.1467 8.27263 89.01 8.9393 89.01H10.2793V88.95C10.2793 88.5167 10.166 88.19 9.9393 87.97C9.71263 87.7433 9.4093 87.63 9.0293 87.63C8.70263 87.63 8.4193 87.7133 8.1793 87.88C7.94596 88.04 7.7993 88.2767 7.7393 88.59H6.8793C6.91263 88.23 7.03263 87.9267 7.2393 87.68C7.45263 87.4333 7.71596 87.2467 8.0293 87.12C8.34263 86.9867 8.67596 86.92 9.0293 86.92C9.72263 86.92 10.2426 87.1067 10.5893 87.48C10.9426 87.8467 11.1193 88.3367 11.1193 88.95V92H10.3693L10.3193 91.11C10.1793 91.39 9.97263 91.63 9.6993 91.83C9.43263 92.0233 9.07263 92.12 8.6193 92.12ZM8.7493 91.41C9.0693 91.41 9.34263 91.3267 9.5693 91.16C9.80263 90.9933 9.9793 90.7767 10.0993 90.51C10.2193 90.2433 10.2793 89.9633 10.2793 89.67V89.66H9.0093C8.51596 89.66 8.16596 89.7467 7.9593 89.92C7.7593 90.0867 7.6593 90.2967 7.6593 90.55C7.6593 90.81 7.75263 91.02 7.9393 91.18C8.13263 91.3333 8.40263 91.41 8.7493 91.41ZM12.3795 94.2V87.04H13.1395L13.2195 87.86C13.3795 87.62 13.6061 87.4033 13.8995 87.21C14.1995 87.0167 14.5795 86.92 15.0395 86.92C15.5328 86.92 15.9628 87.0333 16.3295 87.26C16.6961 87.4867 16.9795 87.7967 17.1795 88.19C17.3861 88.5833 17.4895 89.03 17.4895 89.53C17.4895 90.03 17.3861 90.4767 17.1795 90.87C16.9795 91.2567 16.6928 91.5633 16.3195 91.79C15.9528 92.01 15.5228 92.12 15.0295 92.12C14.6228 92.12 14.2595 92.0367 13.9395 91.87C13.6261 91.7033 13.3861 91.47 13.2195 91.17V94.2H12.3795ZM14.9395 91.39C15.2728 91.39 15.5661 91.3133 15.8195 91.16C16.0728 91 16.2728 90.78 16.4195 90.5C16.5661 90.22 16.6395 89.8933 16.6395 89.52C16.6395 89.1467 16.5661 88.82 16.4195 88.54C16.2728 88.26 16.0728 88.0433 15.8195 87.89C15.5661 87.73 15.2728 87.65 14.9395 87.65C14.6061 87.65 14.3128 87.73 14.0595 87.89C13.8061 88.0433 13.6061 88.26 13.4595 88.54C13.3128 88.82 13.2395 89.1467 13.2395 89.52C13.2395 89.8933 13.3128 90.22 13.4595 90.5C13.6061 90.78 13.8061 91 14.0595 91.16C14.3128 91.3133 14.6061 91.39 14.9395 91.39ZM20.3088 92.12C19.8954 92.12 19.5521 92.05 19.2788 91.91C19.0054 91.77 18.8021 91.5833 18.6688 91.35C18.5354 91.1167 18.4688 90.8633 18.4688 90.59C18.4688 90.0833 18.6621 89.6933 19.0488 89.42C19.4354 89.1467 19.9621 89.01 20.6288 89.01H21.9688V88.95C21.9688 88.5167 21.8554 88.19 21.6288 87.97C21.4021 87.7433 21.0988 87.63 20.7188 87.63C20.3921 87.63 20.1088 87.7133 19.8688 87.88C19.6354 88.04 19.4888 88.2767 19.4288 88.59H18.5688C18.6021 88.23 18.7221 87.9267 18.9288 87.68C19.1421 87.4333 19.4054 87.2467 19.7188 87.12C20.0321 86.9867 20.3654 86.92 20.7188 86.92C21.4121 86.92 21.9321 87.1067 22.2788 87.48C22.6321 87.8467 22.8088 88.3367 22.8088 88.95V92H22.0588L22.0088 91.11C21.8688 91.39 21.6621 91.63 21.3888 91.83C21.1221 92.0233 20.7621 92.12 20.3088 92.12ZM20.4388 91.41C20.7588 91.41 21.0321 91.3267 21.2588 91.16C21.4921 90.9933 21.6688 90.7767 21.7888 90.51C21.9088 90.2433 21.9688 89.9633 21.9688 89.67V89.66H20.6988C20.2054 89.66 19.8554 89.7467 19.6488 89.92C19.4488 90.0867 19.3488 90.2967 19.3488 90.55C19.3488 90.81 19.4421 91.02 19.6288 91.18C19.8221 91.3333 20.0921 91.41 20.4388 91.41ZM25.8922 92C25.4389 92 25.0822 91.89 24.8222 91.67C24.5622 91.45 24.4322 91.0533 24.4322 90.48V87.75H23.5722V87.04H24.4322L24.5422 85.85H25.2722V87.04H26.7322V87.75H25.2722V90.48C25.2722 90.7933 25.3355 91.0067 25.4622 91.12C25.5889 91.2267 25.8122 91.28 26.1322 91.28H26.6522V92H25.8922ZM27.7994 92V84.8H28.6394V89.13L30.6694 87.04H31.6994L29.4994 89.28L31.9794 92H30.9094L28.6394 89.43V92H27.7994ZM34.4494 92.12C34.036 92.12 33.6927 92.05 33.4194 91.91C33.146 91.77 32.9427 91.5833 32.8094 91.35C32.676 91.1167 32.6094 90.8633 32.6094 90.59C32.6094 90.0833 32.8027 89.6933 33.1894 89.42C33.576 89.1467 34.1027 89.01 34.7694 89.01H36.1094V88.95C36.1094 88.5167 35.996 88.19 35.7694 87.97C35.5427 87.7433 35.2394 87.63 34.8594 87.63C34.5327 87.63 34.2494 87.7133 34.0094 87.88C33.776 88.04 33.6294 88.2767 33.5694 88.59H32.7094C32.7427 88.23 32.8627 87.9267 33.0694 87.68C33.2827 87.4333 33.546 87.2467 33.8594 87.12C34.1727 86.9867 34.506 86.92 34.8594 86.92C35.5527 86.92 36.0727 87.1067 36.4194 87.48C36.7727 87.8467 36.9494 88.3367 36.9494 88.95V92H36.1994L36.1494 91.11C36.0094 91.39 35.8027 91.63 35.5294 91.83C35.2627 92.0233 34.9027 92.12 34.4494 92.12ZM34.5794 91.41C34.8994 91.41 35.1727 91.3267 35.3994 91.16C35.6327 90.9933 35.8094 90.7767 35.9294 90.51C36.0494 90.2433 36.1094 89.9633 36.1094 89.67V89.66H34.8394C34.346 89.66 33.996 89.7467 33.7894 89.92C33.5894 90.0867 33.4894 90.2967 33.4894 90.55C33.4894 90.81 33.5827 91.02 33.7694 91.18C33.9627 91.3333 34.2327 91.41 34.5794 91.41ZM38.2095 92V87.04H38.9695L39.0195 87.93C39.1795 87.6167 39.4095 87.37 39.7095 87.19C40.0095 87.01 40.3495 86.92 40.7295 86.92C41.3162 86.92 41.7829 87.1 42.1295 87.46C42.4829 87.8133 42.6595 88.36 42.6595 89.1V92H41.8195V89.19C41.8195 88.1567 41.3929 87.64 40.5395 87.64C40.1129 87.64 39.7562 87.7967 39.4695 88.11C39.1895 88.4167 39.0495 88.8567 39.0495 89.43V92H38.2095ZM46.5787 92V84.8H47.4187V87.89C47.5853 87.5833 47.822 87.3467 48.1287 87.18C48.4353 87.0067 48.7687 86.92 49.1287 86.92C49.702 86.92 50.162 87.1 50.5087 87.46C50.8553 87.8133 51.0287 88.36 51.0287 89.1V92H50.1987V89.19C50.1987 88.1567 49.782 87.64 48.9487 87.64C48.5153 87.64 48.152 87.7967 47.8587 88.11C47.5653 88.4167 47.4187 88.8567 47.4187 89.43V92H46.5787ZM53.9513 92.12C53.538 92.12 53.1947 92.05 52.9213 91.91C52.648 91.77 52.4447 91.5833 52.3113 91.35C52.178 91.1167 52.1113 90.8633 52.1113 90.59C52.1113 90.0833 52.3047 89.6933 52.6913 89.42C53.078 89.1467 53.6047 89.01 54.2713 89.01H55.6113V88.95C55.6113 88.5167 55.498 88.19 55.2713 87.97C55.0447 87.7433 54.7413 87.63 54.3613 87.63C54.0347 87.63 53.7513 87.7133 53.5113 87.88C53.278 88.04 53.1313 88.2767 53.0713 88.59H52.2113C52.2447 88.23 52.3647 87.9267 52.5713 87.68C52.7847 87.4333 53.048 87.2467 53.3613 87.12C53.6747 86.9867 54.008 86.92 54.3613 86.92C55.0547 86.92 55.5747 87.1067 55.9213 87.48C56.2747 87.8467 56.4513 88.3367 56.4513 88.95V92H55.7013L55.6513 91.11C55.5113 91.39 55.3047 91.63 55.0313 91.83C54.7647 92.0233 54.4047 92.12 53.9513 92.12ZM54.0813 91.41C54.4013 91.41 54.6747 91.3267 54.9013 91.16C55.1347 90.9933 55.3113 90.7767 55.4313 90.51C55.5513 90.2433 55.6113 89.9633 55.6113 89.67V89.66H54.3413C53.848 89.66 53.498 89.7467 53.2913 89.92C53.0913 90.0867 52.9913 90.2967 52.9913 90.55C52.9913 90.81 53.0847 91.02 53.2713 91.18C53.4647 91.3333 53.7347 91.41 54.0813 91.41ZM59.9615 92.12C59.4682 92.12 59.0348 92.0067 58.6615 91.78C58.2948 91.5533 58.0082 91.2433 57.8015 90.85C57.6015 90.4567 57.5015 90.01 57.5015 89.51C57.5015 89.01 57.6048 88.5667 57.8115 88.18C58.0182 87.7867 58.3048 87.48 58.6715 87.26C59.0382 87.0333 59.4715 86.92 59.9715 86.92C60.3782 86.92 60.7382 87.0033 61.0515 87.17C61.3648 87.3367 61.6082 87.57 61.7815 87.87V84.8H62.6215V92H61.8615L61.7815 91.18C61.6215 91.42 61.3915 91.6367 61.0915 91.83C60.7915 92.0233 60.4148 92.12 59.9615 92.12ZM60.0515 91.39C60.3848 91.39 60.6782 91.3133 60.9315 91.16C61.1915 91 61.3915 90.78 61.5315 90.5C61.6782 90.22 61.7515 89.8933 61.7515 89.52C61.7515 89.1467 61.6782 88.82 61.5315 88.54C61.3915 88.26 61.1915 88.0433 60.9315 87.89C60.6782 87.73 60.3848 87.65 60.0515 87.65C59.7248 87.65 59.4315 87.73 59.1715 87.89C58.9182 88.0433 58.7182 88.26 58.5715 88.54C58.4315 88.82 58.3615 89.1467 58.3615 89.52C58.3615 89.8933 58.4315 90.22 58.5715 90.5C58.7182 90.78 58.9182 91 59.1715 91.16C59.4315 91.3133 59.7248 91.39 60.0515 91.39ZM64.5008 85.94C64.3341 85.94 64.1941 85.8867 64.0808 85.78C63.9741 85.6667 63.9208 85.5267 63.9208 85.36C63.9208 85.2 63.9741 85.0667 64.0808 84.96C64.1941 84.8533 64.3341 84.8 64.5008 84.8C64.6608 84.8 64.7974 84.8533 64.9108 84.96C65.0241 85.0667 65.0808 85.2 65.0808 85.36C65.0808 85.5267 65.0241 85.6667 64.9108 85.78C64.7974 85.8867 64.6608 85.94 64.5008 85.94ZM64.0808 92V87.04H64.9208V92H64.0808ZM68.0334 92.12C67.62 92.12 67.2767 92.05 67.0034 91.91C66.73 91.77 66.5267 91.5833 66.3934 91.35C66.26 91.1167 66.1934 90.8633 66.1934 90.59C66.1934 90.0833 66.3867 89.6933 66.7734 89.42C67.16 89.1467 67.6867 89.01 68.3534 89.01H69.6934V88.95C69.6934 88.5167 69.58 88.19 69.3534 87.97C69.1267 87.7433 68.8234 87.63 68.4434 87.63C68.1167 87.63 67.8334 87.7133 67.5934 87.88C67.36 88.04 67.2134 88.2767 67.1534 88.59H66.2934C66.3267 88.23 66.4467 87.9267 66.6534 87.68C66.8667 87.4333 67.13 87.2467 67.4434 87.12C67.7567 86.9867 68.09 86.92 68.4434 86.92C69.1367 86.92 69.6567 87.1067 70.0034 87.48C70.3567 87.8467 70.5334 88.3367 70.5334 88.95V92H69.7834L69.7334 91.11C69.5934 91.39 69.3867 91.63 69.1134 91.83C68.8467 92.0233 68.4867 92.12 68.0334 92.12ZM68.1634 91.41C68.4834 91.41 68.7567 91.3267 68.9834 91.16C69.2167 90.9933 69.3934 90.7767 69.5134 90.51C69.6334 90.2433 69.6934 89.9633 69.6934 89.67V89.66H68.4234C67.93 89.66 67.58 89.7467 67.3734 89.92C67.1734 90.0867 67.0734 90.2967 67.0734 90.55C67.0734 90.81 67.1667 91.02 67.3534 91.18C67.5467 91.3333 67.8167 91.41 68.1634 91.41ZM71.7935 92V84.8H72.6335V87.89C72.8002 87.5833 73.0368 87.3467 73.3435 87.18C73.6502 87.0067 73.9835 86.92 74.3435 86.92C74.9168 86.92 75.3768 87.1 75.7235 87.46C76.0702 87.8133 76.2435 88.36 76.2435 89.1V92H75.4135V89.19C75.4135 88.1567 74.9968 87.64 74.1635 87.64C73.7302 87.64 73.3668 87.7967 73.0735 88.11C72.7802 88.4167 72.6335 88.8567 72.6335 89.43V92H71.7935ZM80.1627 92V87.04H80.9227L80.9827 87.76C81.1427 87.4933 81.356 87.2867 81.6227 87.14C81.8893 86.9933 82.1893 86.92 82.5227 86.92C82.916 86.92 83.2527 87 83.5327 87.16C83.8193 87.32 84.0393 87.5633 84.1927 87.89C84.366 87.59 84.6027 87.3533 84.9027 87.18C85.2093 87.0067 85.5393 86.92 85.8927 86.92C86.486 86.92 86.9593 87.1 87.3127 87.46C87.666 87.8133 87.8427 88.36 87.8427 89.1V92H87.0127V89.19C87.0127 88.6767 86.9093 88.29 86.7027 88.03C86.496 87.77 86.1993 87.64 85.8127 87.64C85.4127 87.64 85.0793 87.7967 84.8127 88.11C84.5527 88.4167 84.4227 88.8567 84.4227 89.43V92H83.5827V89.19C83.5827 88.6767 83.4793 88.29 83.2727 88.03C83.066 87.77 82.7693 87.64 82.3827 87.64C81.9893 87.64 81.6593 87.7967 81.3927 88.11C81.1327 88.4167 81.0027 88.8567 81.0027 89.43V92H80.1627ZM91.338 92.12C90.8646 92.12 90.4446 92.0133 90.078 91.8C89.7113 91.58 89.4213 91.2767 89.208 90.89C89.0013 90.5033 88.898 90.0467 88.898 89.52C88.898 89 89.0013 88.5467 89.208 88.16C89.4146 87.7667 89.7013 87.4633 90.068 87.25C90.4413 87.03 90.8713 86.92 91.358 86.92C91.838 86.92 92.2513 87.03 92.598 87.25C92.9513 87.4633 93.2213 87.7467 93.408 88.1C93.5946 88.4533 93.688 88.8333 93.688 89.24C93.688 89.3133 93.6846 89.3867 93.678 89.46C93.678 89.5333 93.678 89.6167 93.678 89.71H89.728C89.748 90.09 89.8346 90.4067 89.988 90.66C90.148 90.9067 90.3446 91.0933 90.578 91.22C90.818 91.3467 91.0713 91.41 91.338 91.41C91.6846 91.41 91.9746 91.33 92.208 91.17C92.4413 91.01 92.6113 90.7933 92.718 90.52H93.548C93.4146 90.98 93.158 91.3633 92.778 91.67C92.4046 91.97 91.9246 92.12 91.338 92.12ZM91.338 87.63C90.938 87.63 90.5813 87.7533 90.268 88C89.9613 88.24 89.7846 88.5933 89.738 89.06H92.858C92.838 88.6133 92.6846 88.2633 92.398 88.01C92.1113 87.7567 91.758 87.63 91.338 87.63ZM94.8013 92V87.04H95.5613L95.6113 87.93C95.7713 87.6167 96.0013 87.37 96.3013 87.19C96.6013 87.01 96.9413 86.92 97.3213 86.92C97.908 86.92 98.3747 87.1 98.7213 87.46C99.0747 87.8133 99.2513 88.36 99.2513 89.1V92H98.4113V89.19C98.4113 88.1567 97.9847 87.64 97.1313 87.64C96.7047 87.64 96.348 87.7967 96.0613 88.11C95.7813 88.4167 95.6413 88.8567 95.6413 89.43V92H94.8013ZM102.174 92.12C101.761 92.12 101.417 92.05 101.144 91.91C100.871 91.77 100.667 91.5833 100.534 91.35C100.401 91.1167 100.334 90.8633 100.334 90.59C100.334 90.0833 100.527 89.6933 100.914 89.42C101.301 89.1467 101.827 89.01 102.494 89.01H103.834V88.95C103.834 88.5167 103.721 88.19 103.494 87.97C103.267 87.7433 102.964 87.63 102.584 87.63C102.257 87.63 101.974 87.7133 101.734 87.88C101.501 88.04 101.354 88.2767 101.294 88.59H100.434C100.467 88.23 100.587 87.9267 100.794 87.68C101.007 87.4333 101.271 87.2467 101.584 87.12C101.897 86.9867 102.231 86.92 102.584 86.92C103.277 86.92 103.797 87.1067 104.144 87.48C104.497 87.8467 104.674 88.3367 104.674 88.95V92H103.924L103.874 91.11C103.734 91.39 103.527 91.63 103.254 91.83C102.987 92.0233 102.627 92.12 102.174 92.12ZM102.304 91.41C102.624 91.41 102.897 91.3267 103.124 91.16C103.357 90.9933 103.534 90.7767 103.654 90.51C103.774 90.2433 103.834 89.9633 103.834 89.67V89.66H102.564C102.071 89.66 101.721 89.7467 101.514 89.92C101.314 90.0867 101.214 90.2967 101.214 90.55C101.214 90.81 101.307 91.02 101.494 91.18C101.687 91.3333 101.957 91.41 102.304 91.41ZM105.934 92V87.04H106.694L106.764 87.99C106.917 87.6633 107.151 87.4033 107.464 87.21C107.777 87.0167 108.164 86.92 108.624 86.92V87.8H108.394C108.101 87.8 107.831 87.8533 107.584 87.96C107.337 88.06 107.141 88.2333 106.994 88.48C106.847 88.7267 106.774 89.0667 106.774 89.5V92H105.934ZM110.077 85.94C109.91 85.94 109.77 85.8867 109.657 85.78C109.55 85.6667 109.497 85.5267 109.497 85.36C109.497 85.2 109.55 85.0667 109.657 84.96C109.77 84.8533 109.91 84.8 110.077 84.8C110.237 84.8 110.374 84.8533 110.487 84.96C110.6 85.0667 110.657 85.2 110.657 85.36C110.657 85.5267 110.6 85.6667 110.487 85.78C110.374 85.8867 110.237 85.94 110.077 85.94ZM109.657 92V87.04H110.497V92H109.657ZM111.96 92V84.8H112.8V89.13L114.83 87.04H115.86L113.66 89.28L116.14 92H115.07L112.8 89.43V92H111.96ZM117.179 90.06L117.079 85H117.989L117.889 90.06H117.179ZM117.559 92.05C117.392 92.05 117.252 91.9967 117.139 91.89C117.032 91.7767 116.979 91.64 116.979 91.48C116.979 91.32 117.032 91.1867 117.139 91.08C117.252 90.9667 117.392 90.91 117.559 90.91C117.719 90.91 117.852 90.9667 117.959 91.08C118.072 91.1867 118.129 91.32 118.129 91.48C118.129 91.64 118.072 91.7767 117.959 91.89C117.852 91.9967 117.719 92.05 117.559 92.05Z" fill="#282623"/>
<path d="M1.496 20V4.6H6.754C8.558 4.6 10.0393 4.92267 11.198 5.568C12.3713 6.19867 13.2367 7.09333 13.794 8.252C14.366 9.396 14.652 10.7453 14.652 12.3C14.652 13.8547 14.366 15.2113 13.794 16.37C13.2367 17.514 12.3713 18.4087 11.198 19.054C10.0393 19.6847 8.558 20 6.754 20H1.496ZM4.312 17.58H6.622C7.91267 17.58 8.932 17.3747 9.68 16.964C10.428 16.5387 10.9633 15.9373 11.286 15.16C11.6087 14.368 11.77 13.4147 11.77 12.3C11.77 11.2 11.6087 10.254 11.286 9.462C10.9633 8.67 10.428 8.06133 9.68 7.636C8.932 7.21067 7.91267 6.998 6.622 6.998H4.312V17.58ZM22.3066 20.264C21.2506 20.264 20.2973 20.022 19.4466 19.538C18.6106 19.054 17.9433 18.3867 17.4446 17.536C16.9606 16.6707 16.7186 15.6733 16.7186 14.544C16.7186 13.4147 16.968 12.4247 17.4666 11.574C17.9653 10.7087 18.6326 10.034 19.4686 9.55C20.3193 9.066 21.2726 8.824 22.3286 8.824C23.37 8.824 24.3086 9.066 25.1446 9.55C25.9953 10.034 26.6626 10.7087 27.1466 11.574C27.6453 12.4247 27.8946 13.4147 27.8946 14.544C27.8946 15.6733 27.6453 16.6707 27.1466 17.536C26.6626 18.3867 25.9953 19.054 25.1446 19.538C24.294 20.022 23.348 20.264 22.3066 20.264ZM22.3066 17.822C23.04 17.822 23.678 17.5507 24.2206 17.008C24.7633 16.4507 25.0346 15.6293 25.0346 14.544C25.0346 13.4587 24.7633 12.6447 24.2206 12.102C23.678 11.5447 23.0473 11.266 22.3286 11.266C21.5806 11.266 20.9353 11.5447 20.3926 12.102C19.8646 12.6447 19.6006 13.4587 19.6006 14.544C19.6006 15.6293 19.8646 16.4507 20.3926 17.008C20.9353 17.5507 21.5733 17.822 22.3066 17.822ZM30.4124 20V9.088H32.8984L33.1184 10.936C33.4558 10.2907 33.9398 9.77733 34.5704 9.396C35.2158 9.01467 35.9711 8.824 36.8364 8.824C38.1858 8.824 39.2344 9.24933 39.9824 10.1C40.7304 10.9507 41.1044 12.1973 41.1044 13.84V20H38.2884V14.104C38.2884 13.1653 38.0978 12.4467 37.7164 11.948C37.3351 11.4493 36.7411 11.2 35.9344 11.2C35.1424 11.2 34.4898 11.4787 33.9764 12.036C33.4778 12.5933 33.2284 13.3707 33.2284 14.368V20H30.4124ZM47.5592 20.264C46.6205 20.264 45.8505 20.1173 45.2492 19.824C44.6479 19.516 44.2005 19.1127 43.9072 18.614C43.6139 18.1153 43.4672 17.5653 43.4672 16.964C43.4672 15.952 43.8632 15.1307 44.6552 14.5C45.4472 13.8693 46.6352 13.554 48.2192 13.554H50.9912V13.29C50.9912 12.542 50.7785 11.992 50.3532 11.64C49.9279 11.288 49.3999 11.112 48.7692 11.112C48.1972 11.112 47.6985 11.2513 47.2732 11.53C46.8479 11.794 46.5839 12.19 46.4812 12.718H43.7312C43.8045 11.926 44.0685 11.2367 44.5232 10.65C44.9925 10.0633 45.5939 9.616 46.3272 9.308C47.0605 8.98533 47.8819 8.824 48.7912 8.824C50.3459 8.824 51.5705 9.21267 52.4652 9.99C53.3599 10.7673 53.8072 11.8673 53.8072 13.29V20H51.4092L51.1452 18.24C50.8225 18.8267 50.3679 19.3107 49.7812 19.692C49.2092 20.0733 48.4685 20.264 47.5592 20.264ZM48.1972 18.064C49.0039 18.064 49.6272 17.8 50.0672 17.272C50.5219 16.744 50.8079 16.0913 50.9252 15.314H48.5272C47.7792 15.314 47.2439 15.4533 46.9212 15.732C46.5985 15.996 46.4372 16.326 46.4372 16.722C46.4372 17.1473 46.5985 17.4773 46.9212 17.712C47.2439 17.9467 47.6692 18.064 48.1972 18.064ZM61.0045 20.264C60.0365 20.264 59.1858 20.11 58.4525 19.802C57.7191 19.4793 57.1325 19.0393 56.6925 18.482C56.2525 17.9247 55.9885 17.2793 55.9005 16.546H58.7385C58.8265 16.9713 59.0611 17.338 59.4425 17.646C59.8385 17.9393 60.3445 18.086 60.9605 18.086C61.5765 18.086 62.0238 17.9613 62.3025 17.712C62.5958 17.4627 62.7425 17.1767 62.7425 16.854C62.7425 16.3847 62.5371 16.0693 62.1265 15.908C61.7158 15.732 61.1438 15.5633 60.4105 15.402C59.9411 15.2993 59.4645 15.1747 58.9805 15.028C58.4965 14.8813 58.0491 14.698 57.6385 14.478C57.2425 14.2433 56.9198 13.95 56.6705 13.598C56.4211 13.2313 56.2965 12.784 56.2965 12.256C56.2965 11.288 56.6778 10.474 57.4405 9.814C58.2178 9.154 59.3031 8.824 60.6965 8.824C61.9871 8.824 63.0138 9.12467 63.7765 9.726C64.5538 10.3273 65.0158 11.156 65.1625 12.212H62.5005C62.3391 11.4053 61.7305 11.002 60.6745 11.002C60.1465 11.002 59.7358 11.1047 59.4425 11.31C59.1638 11.5153 59.0245 11.772 59.0245 12.08C59.0245 12.4027 59.2371 12.6593 59.6625 12.85C60.0878 13.0407 60.6525 13.2167 61.3565 13.378C62.1191 13.554 62.8158 13.752 63.4465 13.972C64.0918 14.1773 64.6051 14.4927 64.9865 14.918C65.3678 15.3287 65.5585 15.9227 65.5585 16.7C65.5731 17.3747 65.3971 17.9833 65.0305 18.526C64.6638 19.0687 64.1358 19.494 63.4465 19.802C62.7571 20.11 61.9431 20.264 61.0045 20.264ZM69.571 7.394C69.0577 7.394 68.6324 7.24 68.295 6.932C67.9724 6.624 67.811 6.23533 67.811 5.766C67.811 5.29667 67.9724 4.91533 68.295 4.622C68.6324 4.314 69.0577 4.16 69.571 4.16C70.0844 4.16 70.5024 4.314 70.825 4.622C71.1624 4.91533 71.331 5.29667 71.331 5.766C71.331 6.23533 71.1624 6.624 70.825 6.932C70.5024 7.24 70.0844 7.394 69.571 7.394ZM68.163 20V9.088H70.979V20H68.163ZM79.2265 20V4.6H84.4845C86.2885 4.6 87.7698 4.92267 88.9285 5.568C90.1018 6.19867 90.9671 7.09333 91.5245 8.252C92.0965 9.396 92.3825 10.7453 92.3825 12.3C92.3825 13.8547 92.0965 15.2113 91.5245 16.37C90.9671 17.514 90.1018 18.4087 88.9285 19.054C87.7698 19.6847 86.2885 20 84.4845 20H79.2265ZM82.0425 17.58H84.3525C85.6431 17.58 86.6625 17.3747 87.4105 16.964C88.1585 16.5387 88.6938 15.9373 89.0165 15.16C89.3391 14.368 89.5005 13.4147 89.5005 12.3C89.5005 11.2 89.3391 10.254 89.0165 9.462C88.6938 8.67 88.1585 8.06133 87.4105 7.636C86.6625 7.21067 85.6431 6.998 84.3525 6.998H82.0425V17.58ZM96.3191 7.394C95.8058 7.394 95.3804 7.24 95.0431 6.932C94.7204 6.624 94.5591 6.23533 94.5591 5.766C94.5591 5.29667 94.7204 4.91533 95.0431 4.622C95.3804 4.314 95.8058 4.16 96.3191 4.16C96.8324 4.16 97.2504 4.314 97.5731 4.622C97.9104 4.91533 98.0791 5.29667 98.0791 5.766C98.0791 6.23533 97.9104 6.624 97.5731 6.932C97.2504 7.24 96.8324 7.394 96.3191 7.394ZM94.9111 20V9.088H97.7271V20H94.9111ZM6.754 44.264C5.62467 44.264 4.62733 44.0733 3.762 43.692C2.89667 43.296 2.21467 42.7387 1.716 42.02C1.21733 41.2867 0.960667 40.3993 0.946 39.358H3.916C3.94533 40.0767 4.202 40.6853 4.686 41.184C5.18467 41.668 5.86667 41.91 6.732 41.91C7.48 41.91 8.074 41.734 8.514 41.382C8.954 41.0153 9.174 40.5313 9.174 39.93C9.174 39.2993 8.976 38.808 8.58 38.456C8.19867 38.104 7.68533 37.818 7.04 37.598C6.39467 37.378 5.70533 37.1433 4.972 36.894C3.784 36.4833 2.87467 35.9553 2.244 35.31C1.628 34.6647 1.32 33.8067 1.32 32.736C1.30533 31.8267 1.518 31.0493 1.958 30.404C2.41267 29.744 3.02867 29.238 3.806 28.886C4.58333 28.5193 5.478 28.336 6.49 28.336C7.51667 28.336 8.41867 28.5193 9.196 28.886C9.988 29.2527 10.604 29.766 11.044 30.426C11.4987 31.086 11.7407 31.8707 11.77 32.78H8.756C8.74133 32.2373 8.52867 31.7607 8.118 31.35C7.722 30.9247 7.16467 30.712 6.446 30.712C5.83 30.6973 5.30933 30.8513 4.884 31.174C4.47333 31.482 4.268 31.9367 4.268 32.538C4.268 33.0513 4.42933 33.462 4.752 33.77C5.07467 34.0633 5.51467 34.3127 6.072 34.518C6.62933 34.7233 7.26733 34.9433 7.986 35.178C8.74867 35.442 9.44533 35.75 10.076 36.102C10.7067 36.454 11.2127 36.9233 11.594 37.51C11.9753 38.082 12.166 38.8227 12.166 39.732C12.166 40.5387 11.9607 41.2867 11.55 41.976C11.1393 42.6653 10.5307 43.2227 9.724 43.648C8.91733 44.0587 7.92733 44.264 6.754 44.264ZM16.075 31.394C15.5616 31.394 15.1363 31.24 14.799 30.932C14.4763 30.624 14.315 30.2353 14.315 29.766C14.315 29.2967 14.4763 28.9153 14.799 28.622C15.1363 28.314 15.5616 28.16 16.075 28.16C16.5883 28.16 17.0063 28.314 17.329 28.622C17.6663 28.9153 17.835 29.2967 17.835 29.766C17.835 30.2353 17.6663 30.624 17.329 30.932C17.0063 31.24 16.5883 31.394 16.075 31.394ZM14.667 44V33.088H17.483V44H14.667ZM20.4222 44V33.088H22.9082L23.1282 34.936C23.4655 34.2907 23.9495 33.7773 24.5802 33.396C25.2255 33.0147 25.9809 32.824 26.8462 32.824C28.1955 32.824 29.2442 33.2493 29.9922 34.1C30.7402 34.9507 31.1142 36.1973 31.1142 37.84V44H28.2982V38.104C28.2982 37.1653 28.1075 36.4467 27.7262 35.948C27.3449 35.4493 26.7509 35.2 25.9442 35.2C25.1522 35.2 24.4995 35.4787 23.9862 36.036C23.4875 36.5933 23.2382 37.3707 23.2382 38.368V44H20.4222ZM35.325 31.394C34.8116 31.394 34.3863 31.24 34.049 30.932C33.7263 30.624 33.565 30.2353 33.565 29.766C33.565 29.2967 33.7263 28.9153 34.049 28.622C34.3863 28.314 34.8116 28.16 35.325 28.16C35.8383 28.16 36.2563 28.314 36.579 28.622C36.9163 28.9153 37.085 29.2967 37.085 29.766C37.085 30.2353 36.9163 30.624 36.579 30.932C36.2563 31.24 35.8383 31.394 35.325 31.394ZM33.917 44V33.088H36.733V44H33.917ZM40.2662 39.138L39.9582 28.6H42.9722L42.6422 39.138H40.2662ZM41.5202 44.154C40.9922 44.154 40.5595 43.9927 40.2222 43.67C39.8995 43.3473 39.7382 42.9587 39.7382 42.504C39.7382 42.0347 39.8995 41.6387 40.2222 41.316C40.5595 40.9933 40.9922 40.832 41.5202 40.832C42.0189 40.832 42.4295 40.9933 42.7522 41.316C43.0895 41.6387 43.2582 42.0347 43.2582 42.504C43.2582 42.9587 43.0895 43.3473 42.7522 43.67C42.4295 43.9927 42.0189 44.154 41.5202 44.154Z" fill="#282623"/>
<g filter="url(#filter0_d)">
<path d="M213.217 63.3697L212.148 27.6306C212.128 26.96 211.504 27.1226 211.194 27.2877C209.005 29.6119 204.566 34.344 204.322 34.6793C204.016 35.0984 199.778 38.3371 198.328 39.0229C196.877 39.7087 194.624 38.1466 194.357 38.0704C194.09 37.9942 192.333 36.3939 191.761 33.8411C191.303 31.7989 192.817 29.7643 193.632 29.0022C199.524 22.525 211.935 9.07523 214.439 7.09396C216.944 5.11269 219.479 6.26843 220.433 7.09396C227.013 13.1394 240.233 25.2988 240.477 25.5731C240.783 25.916 243.417 28.8117 244.486 30.4882C245.555 32.1646 244.868 34.6031 242.615 36.8892C240.813 38.7181 237.792 38.1593 236.507 37.6512C233.058 34.4126 225.985 27.8059 225.282 27.2877C224.58 26.7695 224.226 27.3004 224.137 27.6306C224.429 39.5436 224.984 63.6059 224.862 64.5508C224.709 65.7319 222.686 68.8943 218.41 69.1992C214.989 69.443 213.523 65.4144 213.217 63.3697Z" fill="#A5C05B"/>
<path d="M183.705 45.2334V96.2511C188.287 94.6051 195.184 93.584 198.06 93.2792C207.503 93.1649 227.031 93.0049 229.596 93.2792C232.162 93.5535 233.567 95.6034 233.949 96.594L254.107 69.8088C254.082 62.7727 254.008 48.0682 253.917 45.5382C253.825 43.0083 252.402 42.6552 251.702 42.7949H226.466C226.606 49.9199 226.886 64.4746 226.886 65.6938C226.886 67.2179 224.633 69.4659 223.87 70.1517C223.106 70.8375 220.472 71.3709 216.425 70.9137C213.187 70.5479 211.538 66.5956 211.118 64.6651L210.774 42.7949C203.596 42.7441 188.676 42.673 186.416 42.7949C184.156 42.9168 183.667 44.4714 183.705 45.2334Z" fill="#FA6775"/>
<path d="M175 122.084V99.4516H180.651V122.084H175Z" fill="#FA6775"/>
<path d="M182.101 122.16V99.1849C182.101 98.4838 191.188 96.3527 195.731 95.3748C206.078 95.3494 227.069 95.3138 228.26 95.3748C229.749 95.451 231.773 97.5846 232.193 98.7658C232.612 99.9469 230.474 102.385 229.978 103.681C229.581 104.717 230.551 104.773 231.085 104.671C239.561 93.2792 256.635 70.3727 257.124 69.885C257.734 69.2753 261.514 68.2085 263.423 69.885C264.95 71.2261 264.645 74.5079 264.301 75.9812C257.836 87.31 243.822 110.928 239.485 114.768C235.148 118.609 228.26 121.296 225.358 122.16H182.101Z" fill="#A5C05B"/>
</g>
<defs>
<filter id="filter0_d" x="175" y="6" width="91.3749" height="117.954" filterUnits="userSpaceOnUse" color-interpolation-filters="sRGB">
<feFlood flood-opacity="0" result="BackgroundImageFix"/>
<feColorMatrix in="SourceAlpha" type="matrix" values="0 0 0 0 0 0 0 0 0 0 0 0 0 0 0 0 0 0 127 0"/>
<feOffset dx="1.19588" dy="1.19588"/>
<feGaussianBlur stdDeviation="0.298969"/>
<feColorMatrix type="matrix" values="0 0 0 0 0 0 0 0 0 0 0 0 0 0 0 0 0 0 0.25 0"/>
<feBlend mode="normal" in2="BackgroundImageFix" result="effect1_dropShadow"/>
<feBlend mode="normal" in="SourceGraphic" in2="effect1_dropShadow" result="shape"/>
</filter>
</defs>
</svg>
