<svg width="20" height="23" viewBox="0 0 20 23" fill="none" xmlns="http://www.w3.org/2000/svg">
<g clip-path="url(#clip0)">
<path d="M19.615 16.1737C18.7525 15.2469 17.1386 13.8527 17.1386 9.28571C17.1386 5.81696 14.7065 3.04018 11.427 2.35893V1.42857C11.427 0.639732 10.7878 0 9.99936 0C9.21097 0 8.57168 0.639732 8.57168 1.42857V2.35893C5.29222 3.04018 2.86007 5.81696 2.86007 9.28571C2.86007 13.8527 1.24623 15.2469 0.383735 16.1737C0.115877 16.4616 -0.00287266 16.8058 -0.000640521 17.1429C0.00427019 17.875 0.578824 18.5714 1.4324 18.5714H18.5663C19.4199 18.5714 19.9949 17.875 19.9994 17.1429C20.0016 16.8058 19.8828 16.4612 19.615 16.1737ZM3.01409 16.4286C3.96141 15.1799 4.99713 13.1103 5.00204 9.31161C5.00204 9.30268 4.99936 9.29464 4.99936 9.28571C4.99936 6.52411 7.23775 4.28571 9.99936 4.28571C12.761 4.28571 14.9994 6.52411 14.9994 9.28571C14.9994 9.29464 14.9967 9.30268 14.9967 9.31161C15.0016 13.1107 16.0373 15.1804 16.9846 16.4286H3.01409ZM9.99936 22.8571C11.5761 22.8571 12.8552 21.5781 12.8552 20H7.14356C7.14356 21.5781 8.42257 22.8571 9.99936 22.8571Z" fill="#282623"/>
</g>
<defs>
<clipPath id="clip0">
<rect width="20" height="22.8571" fill="white"/>
</clipPath>
</defs>
</svg>
