<svg width="168" height="27" viewBox="0 0 168 27" fill="none" xmlns="http://www.w3.org/2000/svg">
<g filter="url(#filter0_d)">
<path d="M8.39837 17.062C8.64103 17.062 8.8577 17.1833 9.04837 17.426C9.25637 17.6513 9.36037 17.9547 9.36037 18.336C9.36037 18.804 9.10037 19.2027 8.58037 19.532C8.0777 19.844 7.5057 20 6.86437 20C5.7897 20 4.8797 19.7747 4.13437 19.324C3.40637 18.856 3.04237 17.8767 3.04237 16.386V9.21H1.84637C1.43037 9.21 1.0837 9.07133 0.806366 8.794C0.529033 8.51667 0.390366 8.17 0.390366 7.754C0.390366 7.35533 0.529033 7.026 0.806366 6.766C1.0837 6.48867 1.43037 6.35 1.84637 6.35H3.04237V4.686C3.04237 4.23533 3.1897 3.86267 3.48437 3.568C3.79637 3.256 4.1777 3.1 4.62837 3.1C5.0617 3.1 5.4257 3.256 5.72037 3.568C6.01503 3.86267 6.16237 4.23533 6.16237 4.686V6.35H8.00837C8.42437 6.35 8.77103 6.48867 9.04837 6.766C9.3257 7.04333 9.46437 7.39 9.46437 7.806C9.46437 8.20467 9.3257 8.54267 9.04837 8.82C8.77103 9.08 8.42437 9.21 8.00837 9.21H6.16237V16.256C6.16237 16.62 6.2577 16.8887 6.44837 17.062C6.63903 17.218 6.89903 17.296 7.22837 17.296C7.36703 17.296 7.5577 17.2613 7.80037 17.192C8.00837 17.1053 8.2077 17.062 8.39837 17.062ZM23.587 5.83C24.0377 5.83 24.4104 5.97733 24.705 6.272C24.9997 6.56667 25.147 6.948 25.147 7.416V18.414C25.147 18.8647 24.9997 19.246 24.705 19.558C24.4104 19.8527 24.0377 20 23.587 20C23.1364 20 22.7637 19.8527 22.469 19.558C22.1917 19.2633 22.0444 18.8907 22.027 18.44C21.5937 18.9427 21.0044 19.376 20.259 19.74C19.531 20.0867 18.7597 20.26 17.945 20.26C16.749 20.26 15.6657 19.9567 14.695 19.35C13.7244 18.726 12.953 17.868 12.381 16.776C11.8264 15.684 11.549 14.4447 11.549 13.058C11.549 11.6713 11.8264 10.432 12.381 9.34C12.9357 8.23067 13.6897 7.37267 14.643 6.766C15.6137 6.142 16.6797 5.83 17.841 5.83C18.673 5.83 19.453 5.986 20.181 6.298C20.909 6.59267 21.5244 6.974 22.027 7.442V7.416C22.027 6.96533 22.1744 6.59267 22.469 6.298C22.7637 5.986 23.1364 5.83 23.587 5.83ZM18.335 17.4C19.4617 17.4 20.3804 16.9927 21.091 16.178C21.8017 15.346 22.157 14.306 22.157 13.058C22.157 11.81 21.8017 10.77 21.091 9.938C20.3804 9.106 19.4617 8.69 18.335 8.69C17.2257 8.69 16.3157 9.106 15.605 9.938C14.8944 10.77 14.539 11.81 14.539 13.058C14.539 14.306 14.8857 15.346 15.579 16.178C16.2897 16.9927 17.2084 17.4 18.335 17.4ZM35.9643 5.83C37.7323 5.83 38.9543 6.35867 39.6303 7.416C40.3063 8.456 40.6443 9.90333 40.6443 11.758V18.414C40.6443 18.8647 40.4969 19.246 40.2023 19.558C39.9076 19.8527 39.5349 20 39.0843 20C38.6336 20 38.2609 19.8527 37.9663 19.558C37.6716 19.246 37.5243 18.8647 37.5243 18.414V11.758C37.5243 10.8047 37.3249 10.0593 36.9263 9.522C36.5276 8.96733 35.8429 8.69 34.8723 8.69C33.8669 8.69 33.0783 8.98467 32.5063 9.574C31.9343 10.146 31.6483 10.874 31.6483 11.758V18.414C31.6483 18.8647 31.5009 19.246 31.2063 19.558C30.9116 19.8527 30.5389 20 30.0883 20C29.6376 20 29.2649 19.8527 28.9703 19.558C28.6756 19.246 28.5283 18.8647 28.5283 18.414V7.676C28.5283 7.22533 28.6756 6.85267 28.9703 6.558C29.2649 6.246 29.6376 6.09 30.0883 6.09C30.5389 6.09 30.9116 6.246 31.2063 6.558C31.5009 6.85267 31.6483 7.22533 31.6483 7.676V8.118C32.1163 7.494 32.7229 6.95667 33.4683 6.506C34.2309 6.05533 35.0629 5.83 35.9643 5.83ZM55.5345 5.83C55.9852 5.83 56.3579 5.97733 56.6525 6.272C56.9472 6.56667 57.0945 6.948 57.0945 7.416V18.986C57.0945 21.1007 56.4359 22.6607 55.1185 23.666C53.8185 24.6887 52.1632 25.2 50.1525 25.2C49.6325 25.2 48.9132 25.1133 47.9945 24.94C47.0932 24.7667 46.4519 24.5933 46.0705 24.42C45.2212 24.056 44.7965 23.5533 44.7965 22.912C44.7965 22.7907 44.8225 22.652 44.8745 22.496C44.9785 22.1147 45.1519 21.82 45.3945 21.612C45.6545 21.4213 45.9319 21.326 46.2265 21.326C46.3999 21.326 46.5645 21.352 46.7205 21.404C46.7899 21.4213 47.2145 21.5773 47.9945 21.872C48.7919 22.184 49.5112 22.34 50.1525 22.34C51.4352 22.34 52.3885 22.08 53.0125 21.56C53.6539 21.0573 53.9745 20.338 53.9745 19.402V18.154C53.5932 18.6913 53.0125 19.1767 52.2325 19.61C51.4699 20.0433 50.6465 20.26 49.7625 20.26C48.5492 20.26 47.4399 19.9567 46.4345 19.35C45.4465 18.726 44.6665 17.868 44.0945 16.776C43.5225 15.684 43.2365 14.4447 43.2365 13.058C43.2365 11.6713 43.5139 10.432 44.0685 9.34C44.6405 8.23067 45.4119 7.37267 46.3825 6.766C47.3705 6.142 48.4625 5.83 49.6585 5.83C50.5425 5.83 51.3659 6.012 52.1285 6.376C52.8912 6.74 53.5065 7.182 53.9745 7.702V7.416C53.9745 6.96533 54.1219 6.59267 54.4165 6.298C54.7112 5.986 55.0839 5.83 55.5345 5.83ZM50.1525 17.4C51.3139 17.4 52.2585 16.9927 52.9865 16.178C53.7319 15.346 54.1045 14.306 54.1045 13.058C54.1045 11.81 53.7319 10.77 52.9865 9.938C52.2585 9.106 51.3139 8.69 50.1525 8.69C48.9912 8.69 48.0465 9.106 47.3185 9.938C46.5905 10.77 46.2265 11.81 46.2265 13.058C46.2265 14.306 46.5905 15.346 47.3185 16.178C48.0465 16.9927 48.9912 17.4 50.1525 17.4ZM71.6007 5.83C72.0514 5.83 72.424 5.97733 72.7187 6.272C73.0134 6.56667 73.1607 6.948 73.1607 7.416V18.414C73.1607 18.8647 73.0134 19.246 72.7187 19.558C72.424 19.8527 72.0514 20 71.6007 20C71.15 20 70.7774 19.8527 70.4827 19.558C70.2054 19.2633 70.058 18.8907 70.0407 18.44C69.6074 18.9427 69.018 19.376 68.2727 19.74C67.5447 20.0867 66.7734 20.26 65.9587 20.26C64.7627 20.26 63.6794 19.9567 62.7087 19.35C61.738 18.726 60.9667 17.868 60.3947 16.776C59.84 15.684 59.5627 14.4447 59.5627 13.058C59.5627 11.6713 59.84 10.432 60.3947 9.34C60.9494 8.23067 61.7034 7.37267 62.6567 6.766C63.6274 6.142 64.6934 5.83 65.8547 5.83C66.6867 5.83 67.4667 5.986 68.1947 6.298C68.9227 6.59267 69.538 6.974 70.0407 7.442V7.416C70.0407 6.96533 70.188 6.59267 70.4827 6.298C70.7774 5.986 71.15 5.83 71.6007 5.83ZM66.3487 17.4C67.4754 17.4 68.394 16.9927 69.1047 16.178C69.8154 15.346 70.1707 14.306 70.1707 13.058C70.1707 11.81 69.8154 10.77 69.1047 9.938C68.394 9.106 67.4754 8.69 66.3487 8.69C65.2394 8.69 64.3294 9.106 63.6187 9.938C62.908 10.77 62.5527 11.81 62.5527 13.058C62.5527 14.306 62.8994 15.346 63.5927 16.178C64.3034 16.9927 65.222 17.4 66.3487 17.4ZM83.9779 5.83C85.7459 5.83 86.9679 6.35867 87.6439 7.416C88.3199 8.456 88.6579 9.90333 88.6579 11.758V18.414C88.6579 18.8647 88.5106 19.246 88.2159 19.558C87.9213 19.8527 87.5486 20 87.0979 20C86.6473 20 86.2746 19.8527 85.9799 19.558C85.6853 19.246 85.5379 18.8647 85.5379 18.414V11.758C85.5379 10.8047 85.3386 10.0593 84.9399 9.522C84.5413 8.96733 83.8566 8.69 82.8859 8.69C81.8806 8.69 81.0919 8.98467 80.5199 9.574C79.9479 10.146 79.6619 10.874 79.6619 11.758V18.414C79.6619 18.8647 79.5146 19.246 79.2199 19.558C78.9253 19.8527 78.5526 20 78.1019 20C77.6513 20 77.2786 19.8527 76.9839 19.558C76.6893 19.246 76.5419 18.8647 76.5419 18.414V7.676C76.5419 7.22533 76.6893 6.85267 76.9839 6.558C77.2786 6.246 77.6513 6.09 78.1019 6.09C78.5526 6.09 78.9253 6.246 79.2199 6.558C79.5146 6.85267 79.6619 7.22533 79.6619 7.676V8.118C80.1299 7.494 80.7366 6.95667 81.4819 6.506C82.2446 6.05533 83.0766 5.83 83.9779 5.83Z" fill="#88A550"/>
<path d="M103.6 17.27C103.93 17.6167 104.094 18.0067 104.094 18.44C104.094 18.8733 103.921 19.2373 103.574 19.532C103.245 19.8267 102.89 19.974 102.508 19.974C102.058 19.974 101.676 19.8007 101.364 19.454L96.6842 14.514L95.4102 15.684V18.414C95.4102 18.8647 95.2629 19.246 94.9682 19.558C94.6735 19.8527 94.3009 20 93.8502 20C93.3995 20 93.0269 19.8527 92.7322 19.558C92.4375 19.246 92.2902 18.8647 92.2902 18.414V2.346C92.2902 1.89533 92.4375 1.52267 92.7322 1.228C93.0269 0.915999 93.3995 0.76 93.8502 0.76C94.3009 0.76 94.6735 0.915999 94.9682 1.228C95.2629 1.52267 95.4102 1.89533 95.4102 2.346V11.966L100.974 6.584C101.304 6.25467 101.685 6.09 102.118 6.09C102.5 6.09 102.838 6.25467 103.132 6.584C103.444 6.896 103.6 7.21667 103.6 7.546C103.6 7.962 103.392 8.352 102.976 8.716L99.0502 12.33L103.6 17.27ZM118.729 12.72C118.712 13.136 118.547 13.474 118.235 13.734C117.923 13.994 117.559 14.124 117.143 14.124H108.563C108.771 15.1467 109.248 15.9527 109.993 16.542C110.738 17.114 111.579 17.4 112.515 17.4C113.226 17.4 113.78 17.3393 114.179 17.218C114.578 17.0793 114.89 16.9407 115.115 16.802C115.358 16.646 115.522 16.542 115.609 16.49C115.921 16.334 116.216 16.256 116.493 16.256C116.857 16.256 117.169 16.386 117.429 16.646C117.689 16.906 117.819 17.2093 117.819 17.556C117.819 18.024 117.576 18.4487 117.091 18.83C116.606 19.2287 115.956 19.5667 115.141 19.844C114.326 20.1213 113.503 20.26 112.671 20.26C111.215 20.26 109.941 19.9567 108.849 19.35C107.774 18.7433 106.942 17.9113 106.353 16.854C105.764 15.7793 105.469 14.5747 105.469 13.24C105.469 11.7493 105.781 10.4407 106.405 9.314C107.029 8.18733 107.852 7.32933 108.875 6.74C109.898 6.13333 110.99 5.83 112.151 5.83C113.295 5.83 114.37 6.142 115.375 6.766C116.398 7.39 117.212 8.23067 117.819 9.288C118.426 10.3453 118.729 11.4893 118.729 12.72ZM112.151 8.69C110.14 8.69 108.953 9.63467 108.589 11.524H115.401V11.342C115.332 10.614 114.976 9.99 114.335 9.47C113.694 8.95 112.966 8.69 112.151 8.69ZM132.589 0.76C133.04 0.76 133.412 0.907333 133.707 1.202C134.002 1.49667 134.149 1.878 134.149 2.346V18.414C134.149 18.8647 134.002 19.246 133.707 19.558C133.412 19.8527 133.04 20 132.589 20C132.138 20 131.766 19.8527 131.471 19.558C131.194 19.2633 131.046 18.8907 131.029 18.44C130.596 18.9427 130.006 19.376 129.261 19.74C128.533 20.0867 127.762 20.26 126.947 20.26C125.751 20.26 124.668 19.9567 123.697 19.35C122.726 18.726 121.955 17.868 121.383 16.776C120.828 15.684 120.551 14.4447 120.551 13.058C120.551 11.6713 120.828 10.432 121.383 9.34C121.938 8.23067 122.692 7.37267 123.645 6.766C124.616 6.142 125.682 5.83 126.843 5.83C127.675 5.83 128.455 5.986 129.183 6.298C129.911 6.59267 130.526 6.974 131.029 7.442V2.346C131.029 1.89533 131.176 1.52267 131.471 1.228C131.766 0.915999 132.138 0.76 132.589 0.76ZM127.337 17.4C128.464 17.4 129.382 16.9927 130.093 16.178C130.804 15.346 131.159 14.306 131.159 13.058C131.159 11.81 130.804 10.77 130.093 9.938C129.382 9.106 128.464 8.69 127.337 8.69C126.228 8.69 125.318 9.106 124.607 9.938C123.896 10.77 123.541 11.81 123.541 13.058C123.541 14.306 123.888 15.346 124.581 16.178C125.292 16.9927 126.21 17.4 127.337 17.4ZM148.258 6.09C148.709 6.09 149.082 6.246 149.376 6.558C149.671 6.85267 149.818 7.22533 149.818 7.676V14.28C149.818 16.152 149.298 17.6167 148.258 18.674C147.236 19.7313 145.771 20.26 143.864 20.26C141.958 20.26 140.493 19.7313 139.47 18.674C138.448 17.6167 137.936 16.152 137.936 14.28V7.676C137.936 7.22533 138.084 6.85267 138.378 6.558C138.673 6.246 139.046 6.09 139.496 6.09C139.947 6.09 140.32 6.246 140.614 6.558C140.909 6.85267 141.056 7.22533 141.056 7.676V14.28C141.056 15.3373 141.29 16.126 141.758 16.646C142.226 17.1487 142.928 17.4 143.864 17.4C144.818 17.4 145.528 17.1487 145.996 16.646C146.464 16.126 146.698 15.3373 146.698 14.28V7.676C146.698 7.22533 146.846 6.85267 147.14 6.558C147.435 6.246 147.808 6.09 148.258 6.09ZM164.454 5.83C164.905 5.83 165.278 5.97733 165.572 6.272C165.867 6.56667 166.014 6.948 166.014 7.416V18.414C166.014 18.8647 165.867 19.246 165.572 19.558C165.278 19.8527 164.905 20 164.454 20C164.004 20 163.631 19.8527 163.336 19.558C163.059 19.2633 162.912 18.8907 162.894 18.44C162.461 18.9427 161.872 19.376 161.126 19.74C160.398 20.0867 159.627 20.26 158.812 20.26C157.616 20.26 156.533 19.9567 155.562 19.35C154.592 18.726 153.82 17.868 153.248 16.776C152.694 15.684 152.416 14.4447 152.416 13.058C152.416 11.6713 152.694 10.432 153.248 9.34C153.803 8.23067 154.557 7.37267 155.51 6.766C156.481 6.142 157.547 5.83 158.708 5.83C159.54 5.83 160.32 5.986 161.048 6.298C161.776 6.59267 162.392 6.974 162.894 7.442V7.416C162.894 6.96533 163.042 6.59267 163.336 6.298C163.631 5.986 164.004 5.83 164.454 5.83ZM159.202 17.4C160.329 17.4 161.248 16.9927 161.958 16.178C162.669 15.346 163.024 14.306 163.024 13.058C163.024 11.81 162.669 10.77 161.958 9.938C161.248 9.106 160.329 8.69 159.202 8.69C158.093 8.69 157.183 9.106 156.472 9.938C155.762 10.77 155.406 11.81 155.406 13.058C155.406 14.306 155.753 15.346 156.446 16.178C157.157 16.9927 158.076 17.4 159.202 17.4Z" fill="#FA6775"/>
</g>
<defs>
<filter id="filter0_d" x="0.390381" y="0.76001" width="167.418" height="26.2338" filterUnits="userSpaceOnUse" color-interpolation-filters="sRGB">
<feFlood flood-opacity="0" result="BackgroundImageFix"/>
<feColorMatrix in="SourceAlpha" type="matrix" values="0 0 0 0 0 0 0 0 0 0 0 0 0 0 0 0 0 0 127 0"/>
<feOffset dx="1.19588" dy="1.19588"/>
<feGaussianBlur stdDeviation="0.298969"/>
<feColorMatrix type="matrix" values="0 0 0 0 0 0 0 0 0 0 0 0 0 0 0 0 0 0 0.25 0"/>
<feBlend mode="normal" in2="BackgroundImageFix" result="effect1_dropShadow"/>
<feBlend mode="normal" in="SourceGraphic" in2="effect1_dropShadow" result="shape"/>
</filter>
</defs>
</svg>
